<svg width="50" height="50" viewBox="0 0 50 50" fill="none" xmlns="http://www.w3.org/2000/svg">
<g clip-path="url(#clip0_314_676)">
<path d="M0.595238 45.2383C0.923979 45.2383 1.19048 44.9718 1.19048 44.6431C1.19048 44.3143 0.923979 44.0479 0.595238 44.0479C0.266497 44.0479 0 44.3143 0 44.6431C0 44.9718 0.266497 45.2383 0.595238 45.2383Z" fill="#F9F9FA"/>
<path d="M3.27386 44.0479H2.381C2.22314 44.0479 2.07174 44.1106 1.96011 44.2222C1.84848 44.3338 1.78577 44.4852 1.78577 44.6431C1.78577 44.801 1.84848 44.9524 1.96011 45.064C2.07174 45.1756 2.22314 45.2383 2.381 45.2383H3.27386C3.43173 45.2383 3.58313 45.1756 3.69476 45.064C3.80639 44.9524 3.8691 44.801 3.8691 44.6431C3.8691 44.4852 3.80639 44.3338 3.69476 44.2222C3.58313 44.1106 3.43173 44.0479 3.27386 44.0479Z" fill="#F9F9FA"/>
<path d="M35.1649 46.4289H32.6923C32.5427 46.4409 32.403 46.5088 32.3012 46.6191C32.1994 46.7294 32.1429 46.8741 32.1429 47.0242C32.1429 47.1743 32.1994 47.3189 32.3012 47.4292C32.403 47.5395 32.5427 47.6074 32.6923 47.6194H35.1649C35.3145 47.6074 35.4541 47.5395 35.5559 47.4292C35.6578 47.3189 35.7143 47.1743 35.7143 47.0242C35.7143 46.8741 35.6578 46.7294 35.5559 46.6191C35.4541 46.5088 35.3145 46.4409 35.1649 46.4289ZM17.3077 46.4289H14.8352C14.6855 46.4409 14.5459 46.5088 14.4441 46.6191C14.3423 46.7294 14.2857 46.8741 14.2857 47.0242C14.2857 47.1743 14.3423 47.3189 14.4441 47.4292C14.5459 47.5395 14.6855 47.6074 14.8352 47.6194H17.3077C17.4573 47.6074 17.597 47.5395 17.6988 47.4292C17.8006 47.3189 17.8572 47.1743 17.8572 47.0242C17.8572 46.8741 17.8006 46.7294 17.6988 46.6191C17.597 46.5088 17.4573 46.4409 17.3077 46.4289ZM30.9524 46.4289H19.0476C18.8898 46.4289 18.7384 46.4916 18.6267 46.6033C18.5151 46.7149 18.4524 46.8663 18.4524 47.0242C18.4524 47.182 18.5151 47.3334 18.6267 47.4451C18.7384 47.5567 18.8898 47.6194 19.0476 47.6194H23.7917V48.2146H21.4286C21.2707 48.2146 21.1193 48.2774 21.0077 48.389C20.8961 48.5006 20.8333 48.652 20.8333 48.8099C20.8333 48.9677 20.8961 49.1191 21.0077 49.2308C21.1193 49.3424 21.2707 49.4051 21.4286 49.4051H28.8691C29.0269 49.4051 29.1783 49.3424 29.29 49.2308C29.4016 49.1191 29.4643 48.9677 29.4643 48.8099C29.4643 48.652 29.4016 48.5006 29.29 48.389C29.1783 48.2774 29.0269 48.2146 28.8691 48.2146H26.2083V47.6194H30.9524C31.1103 47.6194 31.2617 47.5567 31.3733 47.4451C31.4849 47.3334 31.5476 47.182 31.5476 47.0242C31.5476 46.8663 31.4849 46.7149 31.3733 46.6033C31.2617 46.4916 31.1103 46.4289 30.9524 46.4289ZM14.8824 37.0085H13.9042L13.6225 36.2111C13.5405 35.9789 13.3885 35.7778 13.1875 35.6356C12.9865 35.4934 12.7463 35.417 12.5 35.417C12.2537 35.417 12.0135 35.4934 11.8125 35.6356C11.6115 35.7778 11.4595 35.9789 11.3775 36.2111L11.0958 37.0085H10.1191C9.86368 37.0086 9.61507 37.0907 9.40994 37.2428C9.20481 37.3949 9.05404 37.609 8.97988 37.8533C8.90573 38.0977 8.91212 38.3595 8.99812 38.5999C9.08412 38.8404 9.24517 39.0468 9.45748 39.1887L10.16 39.6583L9.90596 40.3777C9.82271 40.6135 9.81578 40.8694 9.88616 41.1093C9.95655 41.3492 10.1007 41.5609 10.2981 41.7143C10.4955 41.8676 10.7362 41.955 10.9861 41.9639C11.2359 41.9728 11.4822 41.9028 11.6901 41.7639L12.5 41.2225L13.3099 41.7639C13.5178 41.9028 13.7641 41.9728 14.0139 41.9639C14.2638 41.955 14.5045 41.8676 14.7019 41.7143C14.8993 41.5609 15.0435 41.3492 15.1138 41.1093C15.1842 40.8694 15.1773 40.6135 15.0941 40.3777L14.84 39.6584L15.5217 39.2027C15.7388 39.0643 15.9052 38.8592 15.9959 38.6182C16.0866 38.3771 16.0967 38.1132 16.0247 37.866C15.9526 37.6187 15.8024 37.4015 15.5964 37.2469C15.3905 37.0923 15.14 37.0087 14.8824 37.0085ZM13.4094 39.1826L13.9715 40.7742L12.5 39.7905L11.0285 40.7742L11.5906 39.1826L10.1191 38.199H11.9379L12.5 36.6075L13.0621 38.199H14.881L13.4094 39.1826Z" fill="#F9F9FA"/>
<path d="M23.2158 37.0085H22.2375L21.9559 36.2111C21.8739 35.9789 21.7219 35.7778 21.5209 35.6356C21.3198 35.4934 21.0796 35.417 20.8334 35.417C20.5871 35.417 20.3469 35.4934 20.1459 35.6356C19.9448 35.7778 19.7928 35.9789 19.7108 36.2111L19.4292 37.0085H18.4524C18.197 37.0086 17.9484 37.0907 17.7433 37.2428C17.5382 37.3949 17.3874 37.609 17.3133 37.8533C17.2391 38.0977 17.2455 38.3595 17.3315 38.5999C17.4175 38.8404 17.5785 39.0468 17.7909 39.1887L18.4934 39.6583L18.2393 40.3777C18.1561 40.6135 18.1492 40.8694 18.2195 41.1093C18.2899 41.3492 18.434 41.5609 18.6315 41.7143C18.8289 41.8676 19.0696 41.955 19.3194 41.9639C19.5693 41.9728 19.8156 41.9028 20.0234 41.7639L20.8334 41.2225L21.6433 41.7639C21.8512 41.9028 22.0975 41.9728 22.3473 41.9639C22.5972 41.955 22.8379 41.8676 23.0353 41.7143C23.2327 41.5609 23.3768 41.3492 23.4472 41.1093C23.5176 40.8694 23.5107 40.6135 23.4274 40.3777L23.1734 39.6584L23.855 39.2027C24.0722 39.0643 24.2386 38.8592 24.3293 38.6182C24.42 38.3771 24.4301 38.1132 24.358 37.866C24.286 37.6187 24.1358 37.4015 23.9298 37.2469C23.7239 37.0923 23.4733 37.0087 23.2158 37.0085ZM21.7428 39.1826L22.3049 40.7742L20.8334 39.7905L19.3619 40.7742L19.9239 39.1826L18.4524 38.199H20.2713L20.8334 36.6075L21.3954 38.199H23.2143L21.7428 39.1826Z" fill="#F9F9FA"/>
<path d="M31.5491 37.0085H30.5708L30.2892 36.2111C30.2072 35.9789 30.0552 35.7778 29.8541 35.6356C29.6531 35.4934 29.4129 35.417 29.1666 35.417C28.9204 35.417 28.6802 35.4934 28.4791 35.6356C28.2781 35.7778 28.1261 35.9789 28.0441 36.2111L27.7625 37.0085H26.7857C26.5303 37.0086 26.2817 37.0907 26.0766 37.2428C25.8714 37.3949 25.7207 37.609 25.6465 37.8533C25.5724 38.0977 25.5787 38.3595 25.6647 38.5999C25.7507 38.8404 25.9118 39.0468 26.1241 39.1887L26.8266 39.6583L26.5726 40.3777C26.4894 40.6135 26.4824 40.8694 26.5528 41.1093C26.6232 41.3492 26.7673 41.5608 26.9647 41.7142C27.1622 41.8676 27.4029 41.955 27.6527 41.9639C27.9025 41.9728 28.1489 41.9028 28.3567 41.7639L29.1666 41.2225L29.9766 41.7639C30.1844 41.9028 30.4307 41.9728 30.6806 41.9639C30.9304 41.955 31.1711 41.8676 31.3685 41.7143C31.566 41.5609 31.7101 41.3492 31.7805 41.1093C31.8509 40.8694 31.8439 40.6135 31.7607 40.3777L31.5066 39.6584L32.1883 39.2027C32.4054 39.0643 32.5718 38.8592 32.6625 38.6182C32.7532 38.3771 32.7633 38.1132 32.6913 37.866C32.6193 37.6187 32.469 37.4015 32.2631 37.2469C32.0571 37.0923 31.8066 37.0087 31.5491 37.0085ZM30.0761 39.1826L30.6381 40.7742L29.1666 39.7905L27.6951 40.7742L28.2572 39.1826L26.7857 38.199H28.6046L29.1666 36.6075L29.7287 38.199H31.5476L30.0761 39.1826Z" fill="#F9F9FA"/>
<path d="M40.0941 40.3777L39.84 39.6583L40.5217 39.2027C40.7388 39.0643 40.9052 38.8592 40.9959 38.6181C41.0866 38.3771 41.0967 38.1132 41.0247 37.866C40.9526 37.6187 40.8024 37.4015 40.5964 37.2469C40.3905 37.0923 40.14 37.0087 39.8824 37.0085H38.9042L38.6225 36.2111C38.5405 35.9789 38.3885 35.7778 38.1875 35.6356C37.9865 35.4934 37.7463 35.417 37.5 35.417C37.2537 35.417 37.0135 35.4934 36.8125 35.6356C36.6115 35.7778 36.4595 35.9789 36.3775 36.2111L36.0958 37.0085H35.1191C34.8637 37.0086 34.6151 37.0907 34.4099 37.2428C34.2048 37.3949 34.054 37.609 33.9799 37.8533C33.9057 38.0977 33.9121 38.3595 33.9981 38.5999C34.0841 38.8404 34.2452 39.0468 34.4575 39.1887L35.16 39.6583L34.906 40.3777C34.8227 40.6135 34.8158 40.8694 34.8862 41.1093C34.9566 41.3492 35.1007 41.5608 35.2981 41.7142C35.4955 41.8676 35.7362 41.955 35.9861 41.9639C36.2359 41.9728 36.4822 41.9028 36.6901 41.7639L37.5 41.2225L38.3099 41.7639C38.5178 41.9028 38.7641 41.9728 39.0139 41.9639C39.2638 41.955 39.5045 41.8676 39.7019 41.7142C39.8993 41.5609 40.0435 41.3492 40.1138 41.1093C40.1842 40.8694 40.1773 40.6135 40.0941 40.3777ZM37.5 39.7905L36.0285 40.7742L36.5906 39.1826L35.1191 38.199H36.9379L37.5 36.6075L38.0621 38.199H39.881L38.4094 39.1826L38.9715 40.7742L37.5 39.7905Z" fill="#F9F9FA"/>
<path d="M32.366 26.1906C32.3658 25.9311 32.3086 25.6749 32.1984 25.4399C32.4396 25.3333 32.6542 25.1743 32.8265 24.9746C32.9988 24.7749 33.1246 24.5394 33.1947 24.2851C33.2649 24.0309 33.2777 23.7642 33.2322 23.5044C33.1868 23.2446 33.0841 22.9981 32.9317 22.7828C33.2697 22.4948 33.4877 22.0907 33.5428 21.6501C33.5979 21.2095 33.4861 20.7642 33.2294 20.4018C33.5067 20.1648 33.7047 19.8484 33.7966 19.4953C33.8885 19.1422 33.87 18.7694 33.7434 18.4272C33.6169 18.085 33.3885 17.7898 33.089 17.5815C32.7895 17.3731 32.4333 17.2616 32.0684 17.262H27.3123C28.2875 15.5555 27.9411 13.6369 27.5915 12.5332C27.4776 12.176 27.2524 11.8645 26.9488 11.6443C26.6453 11.4242 26.2793 11.3069 25.9043 11.3096H25.8011C25.3667 11.314 24.9492 11.4785 24.6285 11.7717C24.3078 12.0648 24.1066 12.466 24.0634 12.8983C23.8388 14.9081 21.8809 16.7595 20.7615 17.6668C20.5954 17.4486 20.3812 17.2718 20.1355 17.1499C19.8899 17.0281 19.6194 16.9646 19.3452 16.9644H18.1547C17.6813 16.9649 17.2274 17.1532 16.8926 17.488C16.5578 17.8227 16.3695 18.2766 16.369 18.7501V26.4882C16.3695 26.9616 16.5578 27.4155 16.8926 27.7503C17.2274 28.0851 17.6813 28.2734 18.1547 28.2739H19.3452C19.6957 28.2741 20.0385 28.1706 20.3302 27.9763H30.5803C31.0538 27.9758 31.5077 27.7875 31.8424 27.4527C32.1772 27.1179 32.3655 26.664 32.366 26.1906ZM19.9404 26.4882C19.9403 26.646 19.8775 26.7973 19.7659 26.9089C19.6543 27.0205 19.503 27.0833 19.3452 27.0834H18.1547C17.9969 27.0833 17.8456 27.0205 17.734 26.9089C17.6224 26.7973 17.5597 26.646 17.5595 26.4882V18.7501C17.5597 18.5923 17.6224 18.441 17.734 18.3294C17.8456 18.2178 17.9969 18.155 18.1547 18.1549H19.3452C19.503 18.155 19.6543 18.2178 19.7659 18.3294C19.8775 18.441 19.9403 18.5923 19.9404 18.7501V26.4882ZM21.1309 26.4882V18.8938C22.2571 18.0412 24.9432 15.7446 25.2466 13.0304C25.2562 12.8887 25.3184 12.7558 25.421 12.6576C25.5236 12.5595 25.6592 12.5033 25.8011 12.5001H25.9043C26.0265 12.4969 26.1463 12.5335 26.2459 12.6043C26.3455 12.6751 26.4194 12.7763 26.4565 12.8928C26.7963 13.9655 27.1492 15.9819 25.6954 17.4361C25.6123 17.5194 25.5558 17.6255 25.5329 17.7409C25.51 17.8563 25.5218 17.9759 25.5668 18.0846C25.6118 18.1933 25.688 18.2862 25.7857 18.3517C25.8835 18.4172 25.9984 18.4522 26.116 18.4525H32.0684C32.2263 18.4525 32.3777 18.5152 32.4893 18.6268C32.601 18.7384 32.6637 18.8898 32.6637 19.0477C32.6637 19.2056 32.601 19.357 32.4893 19.4686C32.3777 19.5802 32.2263 19.6429 32.0684 19.6429H28.7946C28.6367 19.6429 28.4853 19.7057 28.3737 19.8173C28.2621 19.9289 28.1994 20.0803 28.1994 20.2382C28.1994 20.3961 28.2621 20.5475 28.3737 20.6591C28.4853 20.7707 28.6367 20.8334 28.7946 20.8334H31.7708C31.9287 20.8334 32.0801 20.8961 32.1917 21.0078C32.3033 21.1194 32.366 21.2708 32.366 21.4287C32.366 21.5865 32.3033 21.7379 32.1917 21.8496C32.0801 21.9612 31.9287 22.0239 31.7708 22.0239H28.7946C28.6367 22.0239 28.4853 22.0866 28.3737 22.1982C28.2621 22.3099 28.1994 22.4613 28.1994 22.6191C28.1994 22.777 28.2621 22.9284 28.3737 23.04C28.4853 23.1517 28.6367 23.2144 28.7946 23.2144H31.4732C31.6311 23.2144 31.7825 23.2771 31.8941 23.3887C32.0057 23.5003 32.0684 23.6517 32.0684 23.8096C32.0684 23.9675 32.0057 24.1189 31.8941 24.2305C31.7825 24.3421 31.6311 24.4049 31.4732 24.4049H28.7946C28.6367 24.4049 28.4853 24.4676 28.3737 24.5792C28.2621 24.6908 28.1994 24.8422 28.1994 25.0001C28.1994 25.158 28.2621 25.3094 28.3737 25.421C28.4853 25.5326 28.6367 25.5953 28.7946 25.5953H30.5803C30.7382 25.5953 30.8896 25.658 31.0012 25.7697C31.1129 25.8813 31.1756 26.0327 31.1756 26.1906C31.1756 26.3484 31.1129 26.4998 31.0012 26.6115C30.8896 26.7231 30.7382 26.7858 30.5803 26.7858H21.104C21.1213 26.6875 21.1303 26.588 21.1309 26.4882Z" fill="#F9F9FA"/>
<path d="M47.6191 44.0479H46.7262C46.5684 44.0479 46.417 44.1106 46.3053 44.2222C46.1937 44.3338 46.131 44.4852 46.131 44.6431C46.131 44.801 46.1937 44.9524 46.3053 45.064C46.417 45.1756 46.5684 45.2383 46.7262 45.2383H47.6191C47.7769 45.2383 47.9283 45.1756 48.04 45.064C48.1516 44.9524 48.2143 44.801 48.2143 44.6431C48.2143 44.4852 48.1516 44.3338 48.04 44.2222C47.9283 44.1106 47.7769 44.0479 47.6191 44.0479Z" fill="#F9F9FA"/>
<path d="M49.4048 45.2383C49.7335 45.2383 50 44.9718 50 44.6431C50 44.3143 49.7335 44.0479 49.4048 44.0479C49.0761 44.0479 48.8096 44.3143 48.8096 44.6431C48.8096 44.9718 49.0761 45.2383 49.4048 45.2383Z" fill="#F9F9FA"/>
<path d="M44.8575 44.0481H42.4958C42.9835 43.6139 43.3738 43.0816 43.6413 42.4859C43.9087 41.8903 44.0472 41.2448 44.0476 40.5919V37.1356C44.0462 35.9037 43.5562 34.7226 42.6851 33.8515C41.8139 32.9803 40.6328 32.4903 39.4009 32.4889H33.5161C35.8134 30.7112 37.5081 28.2697 38.3701 25.4957C39.2321 22.7218 39.2197 19.7497 38.3345 16.9831C37.4493 14.2164 35.7342 11.7891 33.4221 10.0307C31.11 8.27231 28.3128 7.26793 25.4102 7.15393C25.2264 7.14689 25.04 7.14332 24.8561 7.14332C22.2294 7.14343 19.6546 7.87455 17.4198 9.25484C15.1851 10.6351 13.3786 12.6101 12.2025 14.9588C11.0264 17.3074 10.5272 19.937 10.7607 22.5533C10.9942 25.1695 11.9512 27.6691 13.5245 29.7724C14.2921 30.7944 15.1941 31.7082 16.2061 32.4889H10.599C9.36709 32.4903 8.18599 32.9803 7.31487 33.8515C6.44374 34.7226 5.95373 35.9037 5.95234 37.1356V40.5919C5.95275 41.2448 6.09121 41.8903 6.35865 42.4859C6.62609 43.0816 7.01646 43.6139 7.50414 44.0481H5.14243C5.05775 44.037 4.97168 44.0442 4.88998 44.069C4.80827 44.0939 4.73281 44.1359 4.66863 44.1922C4.60445 44.2485 4.55303 44.3179 4.5178 44.3957C4.48258 44.4735 4.46436 44.5579 4.46436 44.6433C4.46436 44.7287 4.48258 44.8131 4.5178 44.8909C4.55303 44.9687 4.60445 45.0381 4.66863 45.0945C4.73281 45.1508 4.80827 45.1928 4.88998 45.2176C4.97168 45.2425 5.05775 45.2496 5.14243 45.2386H44.8575C44.9422 45.2496 45.0282 45.2425 45.11 45.2176C45.1917 45.1928 45.2671 45.1508 45.3313 45.0945C45.3955 45.0381 45.4469 44.9687 45.4821 44.8909C45.5173 44.8131 45.5356 44.7287 45.5356 44.6433C45.5356 44.5579 45.5173 44.4735 45.4821 44.3957C45.4469 44.3179 45.3955 44.2485 45.3313 44.1922C45.2671 44.1359 45.1917 44.0939 45.11 44.069C45.0282 44.0442 44.9422 44.037 44.8575 44.0481ZM10.599 44.0481C9.68239 44.0481 8.80329 43.6839 8.15512 43.0358C7.50696 42.3876 7.14282 41.5085 7.14282 40.5919V37.1356C7.14282 36.219 7.50696 35.3399 8.15512 34.6917C8.80329 34.0435 9.6824 33.6794 10.599 33.6794H21.0253C18.062 32.7623 15.5259 30.813 13.8773 28.1855C12.2288 25.5579 11.5771 22.4263 12.0407 19.3592C12.5042 16.2921 14.0523 13.493 16.4037 11.47C18.7551 9.44694 21.754 8.33421 24.8559 8.3338C25.0245 8.3338 25.1947 8.33703 25.3647 8.34353C28.4206 8.46391 31.3355 9.66084 33.5941 11.7227C35.8527 13.7846 37.3096 16.5787 37.7071 19.611C38.1047 22.6432 37.4174 25.7184 35.7667 28.2929C34.116 30.8674 31.6082 32.7753 28.6866 33.6794H39.4009C40.3175 33.6794 41.1966 34.0435 41.8448 34.6917C42.493 35.3399 42.8571 36.219 42.8571 37.1356V40.5919C42.8571 41.5085 42.493 42.3876 41.8448 43.0358C41.1966 43.6839 40.3175 44.0481 39.4009 44.0481H10.599ZM20.3287 2.38142C20.5053 2.38142 20.678 2.32905 20.8248 2.23094C20.9716 2.13284 21.0861 1.99339 21.1536 1.83024C21.2212 1.66709 21.2389 1.48757 21.2044 1.31437C21.17 1.14118 21.085 0.982084 20.9601 0.857215C20.8352 0.732347 20.6761 0.647311 20.5029 0.61286C20.3297 0.578408 20.1502 0.59609 19.9871 0.663668C19.8239 0.731246 19.6845 0.845686 19.5864 0.992516C19.4883 1.13935 19.4359 1.31197 19.4359 1.48856C19.4362 1.72528 19.5303 1.95222 19.6977 2.11961C19.8651 2.28699 20.092 2.38115 20.3287 2.38142ZM20.3287 1.04213C20.417 1.04213 20.5034 1.06831 20.5768 1.11737C20.6502 1.16642 20.7074 1.23615 20.7412 1.31772C20.775 1.39929 20.7838 1.48906 20.7666 1.57565C20.7494 1.66225 20.7069 1.7418 20.6444 1.80423C20.582 1.86667 20.5024 1.90919 20.4158 1.92641C20.3292 1.94364 20.2395 1.9348 20.1579 1.90101C20.0763 1.86722 20.0066 1.81 19.9576 1.73658C19.9085 1.66317 19.8823 1.57686 19.8823 1.48856C19.8824 1.3702 19.9295 1.25671 20.0132 1.17302C20.0969 1.08932 20.2104 1.04225 20.3287 1.04213ZM48.0073 17.56C47.8896 17.56 47.7745 17.5949 47.6766 17.6603C47.5787 17.7257 47.5024 17.8187 47.4574 17.9274C47.4123 18.0362 47.4006 18.1559 47.4235 18.2714C47.4465 18.3868 47.5032 18.4929 47.5864 18.5761C47.6697 18.6594 47.7757 18.7161 47.8912 18.739C48.0067 18.762 48.1263 18.7502 48.2351 18.7052C48.3439 18.6601 48.4368 18.5838 48.5022 18.4859C48.5676 18.388 48.6026 18.273 48.6026 18.1552C48.6024 17.9974 48.5396 17.8461 48.428 17.7345C48.3164 17.6229 48.1651 17.5602 48.0073 17.56ZM48.0073 18.4528C47.9485 18.4528 47.8909 18.4354 47.842 18.4027C47.793 18.37 47.7549 18.3235 47.7324 18.2691C47.7098 18.2147 47.7039 18.1549 47.7154 18.0972C47.7269 18.0394 47.7552 17.9864 47.7969 17.9448C47.8385 17.9032 47.8915 17.8748 47.9493 17.8633C48.007 17.8518 48.0668 17.8577 48.1212 17.8803C48.1756 17.9028 48.2221 17.9409 48.2548 17.9899C48.2875 18.0388 48.3049 18.0964 48.3049 18.1552C48.3049 18.2341 48.2735 18.3098 48.2177 18.3656C48.1619 18.4214 48.0862 18.4528 48.0073 18.4528ZM39.9716 1.19094C39.8539 1.19094 39.7388 1.22585 39.6409 1.29126C39.543 1.35666 39.4667 1.44963 39.4217 1.55839C39.3766 1.66716 39.3648 1.78684 39.3878 1.90231C39.4108 2.01777 39.4675 2.12383 39.5507 2.20708C39.634 2.29032 39.74 2.34701 39.8555 2.36998C39.9709 2.39295 40.0906 2.38116 40.1994 2.33611C40.3082 2.29106 40.4011 2.21476 40.4665 2.11688C40.5319 2.01899 40.5668 1.90391 40.5668 1.78618C40.5667 1.62837 40.5039 1.47707 40.3923 1.36548C40.2807 1.25389 40.1294 1.19112 39.9716 1.19094ZM39.9716 2.0838C39.9127 2.0838 39.8552 2.06634 39.8063 2.03364C39.7573 2.00094 39.7192 1.95446 39.6966 1.90007C39.6741 1.84569 39.6682 1.78585 39.6797 1.72812C39.6912 1.67038 39.7195 1.61735 39.7612 1.57573C39.8028 1.53411 39.8558 1.50576 39.9135 1.49428C39.9713 1.4828 40.0311 1.48869 40.0855 1.51122C40.1399 1.53374 40.1864 1.57189 40.2191 1.62083C40.2518 1.66977 40.2692 1.72732 40.2692 1.78618C40.2691 1.86509 40.2378 1.94074 40.182 1.99654C40.1262 2.05234 40.0505 2.08372 39.9716 2.0838ZM41.1621 16.0719C41.0443 16.0719 40.9293 16.1068 40.8314 16.1722C40.7335 16.2376 40.6572 16.3306 40.6122 16.4393C40.5671 16.5481 40.5553 16.6678 40.5783 16.7833C40.6012 16.8987 40.6579 17.0048 40.7412 17.088C40.8244 17.1713 40.9305 17.228 41.046 17.2509C41.1614 17.2739 41.2811 17.2621 41.3899 17.2171C41.4986 17.172 41.5916 17.0957 41.657 16.9978C41.7224 16.8999 41.7573 16.7849 41.7573 16.6671C41.7571 16.5093 41.6944 16.358 41.5828 16.2464C41.4712 16.1348 41.3199 16.0721 41.1621 16.0719ZM41.1621 16.9648C41.1032 16.9648 41.0457 16.9473 40.9967 16.9146C40.9478 16.8819 40.9096 16.8354 40.8871 16.781C40.8646 16.7266 40.8587 16.6668 40.8702 16.6091C40.8817 16.5513 40.91 16.4983 40.9516 16.4567C40.9933 16.4151 41.0463 16.3867 41.104 16.3752C41.1618 16.3637 41.2216 16.3696 41.276 16.3922C41.3304 16.4147 41.3768 16.4528 41.4095 16.5018C41.4422 16.5507 41.4597 16.6083 41.4597 16.6671C41.4596 16.746 41.4282 16.8217 41.3724 16.8775C41.3166 16.9333 41.241 16.9647 41.1621 16.9648Z" fill="#F9F9FA"/>
<path d="M11.4002 12.4995C11.4002 12.3818 11.3653 12.2667 11.2999 12.1688C11.2345 12.071 11.1415 11.9947 11.0327 11.9496C10.924 11.9046 10.8043 11.8928 10.6888 11.9157C10.5734 11.9387 10.4673 11.9954 10.3841 12.0786C10.3008 12.1619 10.2441 12.2679 10.2212 12.3834C10.1982 12.4989 10.21 12.6186 10.255 12.7273C10.3001 12.8361 10.3764 12.9291 10.4743 12.9945C10.5721 13.0599 10.6872 13.0948 10.805 13.0948C10.9628 13.0946 11.1141 13.0318 11.2257 12.9202C11.3372 12.8086 11.4 12.6573 11.4002 12.4995ZM10.5073 12.4995C10.5073 12.4407 10.5248 12.3831 10.5575 12.3342C10.5902 12.2852 10.6367 12.2471 10.6911 12.2246C10.7454 12.202 10.8053 12.1962 10.863 12.2076C10.9208 12.2191 10.9738 12.2475 11.0154 12.2891C11.057 12.3307 11.0854 12.3837 11.0969 12.4415C11.1083 12.4992 11.1024 12.559 11.0799 12.6134C11.0574 12.6678 11.0192 12.7143 10.9703 12.747C10.9214 12.7797 10.8638 12.7972 10.805 12.7972C10.726 12.7971 10.6504 12.7657 10.5946 12.7099C10.5388 12.6541 10.5074 12.5784 10.5073 12.4995Z" fill="#F9F9FA"/>
<path d="M3.24046 20.539L3.68302 19.9572L3.40355 19.7988L3.11933 20.4506H3.1101L2.82141 19.8033L2.53718 19.9664L2.97498 20.5345V20.5438L2.29016 20.4554V20.772L2.97945 20.6836V20.6929L2.53718 21.2607L2.80236 21.4286L3.10534 20.772H3.11457L3.39403 21.4238L3.68748 21.2563L3.24046 20.6973V20.6881L3.94343 20.772V20.4554L3.24046 20.5482V20.539Z" fill="#F9F9FA"/>
<path d="M5.08367 3.8889L4.82891 4.21599L4.98188 4.31242L5.15629 3.93444H5.16135L5.32236 4.30974L5.49141 4.21331L5.23397 3.89129V3.88593L5.63873 3.93444V3.752L5.23397 3.80557V3.80021L5.48873 3.46509L5.32801 3.37402L5.16432 3.74932H5.15897L4.9926 3.3764L4.82891 3.47045L5.08099 3.79754V3.80289L4.68665 3.752V3.93444L5.08367 3.88355V3.8889Z" fill="#F9F9FA"/>
<path d="M48.9003 7.35485V7.04444L48.2107 7.13581V7.12658L48.6446 6.55575L48.3705 6.40039L48.092 7.03968H48.0827L47.7997 6.40485L47.5208 6.56497L47.9503 7.12212V7.13134L47.2786 7.04444V7.35485L47.9548 7.26825V7.27747L47.5208 7.83462L47.7812 7.9992L48.0783 7.35485H48.0872L48.3613 7.99444L48.6491 7.83015L48.2107 7.28194V7.27271L48.9003 7.35485Z" fill="#F9F9FA"/>
<path d="M34.7464 5.82961L35.1208 5.33705L34.8842 5.20312L34.644 5.75461H34.636L34.3919 5.20699L34.1511 5.34509L34.5217 5.82574V5.83348L33.9425 5.75878V6.02664L34.5255 5.95164V5.95967L34.1511 6.44033L34.3758 6.58229L34.6321 6.02664H34.6398L34.8764 6.57812L35.1246 6.43646L34.7464 5.96354V5.95551L35.341 6.02664V5.75878L34.7464 5.83735V5.82961Z" fill="#F9F9FA"/>
</g>
<defs>
<clipPath id="clip0_314_676">
<rect width="50" height="50" fill="white"/>
</clipPath>
</defs>
</svg>
