<svg width="490" height="140" viewBox="0 0 490 140" fill="none" xmlns="http://www.w3.org/2000/svg">
<path d="M490 0H52.7471C23.6113 0 0 23.286 0 52.0203V140H437.253C466.389 140 490 116.714 490 87.9797V0Z" fill="#2C3E50"/>
<path d="M81.3787 96.1771H44.5807L38.2635 117.402H22.8669L51.3542 22.5527H74.5571L103.044 117.402H87.6238L81.3787 96.1771ZM77.8478 84.1669L63.6763 36.529H62.2831L48.1116 84.1669H77.8478Z" fill="white"/>
<path d="M129.13 106.127C134.606 106.767 139.866 107.098 144.887 107.098C150.099 107.098 155.912 106.814 162.277 106.174V77.9375L147.673 76.8478C138.233 76.1609 131.171 74.9291 126.44 73.2708C121.708 71.6126 118.441 68.9595 116.495 65.3825C114.598 61.8055 113.661 56.6177 113.661 49.8428C113.661 42.5466 114.598 36.7429 116.495 32.479C118.393 28.1676 121.467 25.0881 125.743 23.1693C130.018 21.2505 135.735 20.2793 142.893 20.2793C153.221 20.2793 163.622 21.2505 173.95 23.1693L171.957 35.1795C163.766 33.6634 154.35 32.929 143.83 32.929C138.617 32.929 134.126 33.1659 130.451 33.6634V62.1845L147.553 63.2742C155.743 63.7717 162.109 64.9798 166.648 66.8512C171.164 68.7226 174.359 71.6126 176.232 75.4739C178.13 79.3351 179.066 84.7362 179.066 91.6532C179.066 98.7125 177.914 104.303 175.68 108.33C173.446 112.405 169.723 115.295 164.607 117.048C159.49 118.8 152.429 119.701 143.541 119.701C132.661 119.701 122.308 118.469 112.484 116.076L114.766 103.616C118.849 104.611 123.677 105.44 129.13 106.127Z" fill="white"/>
<path d="M228.307 117.402H212.886V35.202H187.498V22.5996H253.648V35.202H228.259V117.402H228.307Z" fill="white"/>
<path d="M323.088 117.402L307.091 83.8822H285.209V117.402H269.788V22.5996H308.267C315.137 22.5996 320.493 23.6182 324.313 25.6318C328.132 27.6453 330.918 30.9854 332.623 35.581C334.305 40.2003 335.169 46.5015 335.169 54.603C335.169 62.3966 334.185 68.4846 332.191 72.8906C330.197 77.2967 326.931 80.3526 322.391 82.0582L339.781 117.402H323.088ZM285.209 71.9194H308.412C312.399 71.9194 315.161 71.4693 316.722 70.5455C318.26 69.6216 319.004 67.9397 319.004 65.5472V41.5742C319.004 39.1343 318.26 37.4524 316.722 36.5759C315.185 35.6521 312.399 35.202 308.412 35.202H285.209V71.9194Z" fill="white"/>
<path d="M378.26 67.7979V106.126C378.26 112.356 373.144 117.449 366.779 117.449V90.4916H355.298V79.1684C355.298 72.9383 360.414 67.8452 366.779 67.8452H378.26V67.7979Z" fill="#2880B9"/>
<path d="M355.298 33.9238C355.298 40.1539 360.414 45.247 366.779 45.247C373.096 45.247 378.261 40.2013 378.261 33.9238C378.261 27.6936 373.144 22.6006 366.779 22.6006C360.462 22.6006 355.298 27.6463 355.298 33.9238Z" fill="#2880B9"/>
<path d="M447.606 117.403L428.318 89.6166L410.423 117.403H394.114L420.151 77.8907L394.859 41.4102H411.36L429.855 68.1783L446.957 41.4102H463.314L437.854 79.691L464.059 117.38H447.606V117.403Z" fill="white"/>
</svg>
