<svg width="574" height="603" viewBox="0 0 574 603" fill="none" xmlns="http://www.w3.org/2000/svg">
<g clip-path="url(#clip0_302_2137)">
<path d="M232.378 8.52867C384.01 -30.8816 433.949 73.3657 496.496 174.632C559.044 275.898 624.206 402.096 516.296 481.331H66.7635C66.7635 481.331 1.12082 464.634 0.0134335 376.041C-0.800429 310.87 64.2018 302.033 85.469 202.064C106.75 102.108 155.221 28.5814 232.378 8.52867Z" fill="#2880B9" fill-opacity="0.25"/>
<path d="M232.378 8.52867C384.01 -30.8816 433.949 73.3657 496.496 174.632C559.044 275.898 624.206 402.096 516.296 481.331H66.7635C66.7635 481.331 1.12082 464.634 0.0134335 376.041C-0.800429 310.87 64.2018 302.033 85.469 202.064C106.75 102.108 155.221 28.5814 232.378 8.52867Z" fill="white" fill-opacity="0.5"/>
<path d="M510.092 325.281H475.242C474.322 325.281 473.575 326.03 473.575 326.952V337.647C473.575 338.57 474.322 339.318 475.242 339.318H477.511C476.683 340.802 475.389 343.195 475.709 343.195C476.07 343.195 479.712 340.561 481.393 339.318H510.078C510.999 339.318 511.746 338.57 511.746 337.647V326.952C511.76 326.03 511.012 325.281 510.092 325.281Z" stroke="#263238" stroke-miterlimit="10" stroke-linecap="round" stroke-linejoin="round"/>
<path d="M501.113 345.615H535.949C536.869 345.615 537.617 346.364 537.617 347.286V357.981C537.617 358.903 536.869 359.652 535.949 359.652H533.681C534.508 361.136 535.802 363.529 535.482 363.529C535.122 363.529 531.479 360.895 529.798 359.652H501.113C500.192 359.652 499.432 358.903 499.432 357.981V347.286C499.445 346.364 500.192 345.615 501.113 345.615Z" stroke="#263238" stroke-miterlimit="10" stroke-linecap="round" stroke-linejoin="round"/>
<path d="M501.113 303.29H535.949C536.869 303.29 537.617 304.039 537.617 304.961V315.656C537.617 316.578 536.869 317.327 535.949 317.327H533.681C534.508 318.811 535.802 321.204 535.482 321.204C535.122 321.204 531.479 318.57 529.798 317.327H501.113C500.192 317.327 499.432 316.578 499.432 315.656V304.961C499.445 304.052 500.192 303.29 501.113 303.29Z" stroke="#263238" stroke-miterlimit="10" stroke-linecap="round" stroke-linejoin="round"/>
<path d="M85.4688 240.659C86.4161 235.031 82.2267 230.967 77.3302 231.007C72.5671 231.047 68.351 238.961 68.351 238.961C68.351 238.961 62.6807 233.293 57.7174 232.785C52.5541 232.264 48.1912 237.705 50.5261 244.803C53.9016 255.057 69.405 261.768 69.405 261.768C69.405 261.768 83.5609 252.009 85.4688 240.659Z" stroke="#263238" stroke-miterlimit="10" stroke-linecap="round" stroke-linejoin="round"/>
<path d="M51.8335 260.538C51.1397 257.597 48.2712 256.474 45.883 257.49C43.5615 258.493 43.1212 263.225 43.1212 263.225C43.1212 263.225 39.1853 261.621 36.6637 262.397C34.0353 263.212 33.0079 266.755 35.6096 269.749C39.3587 274.067 48.3112 274.161 48.3112 274.161C48.3112 274.161 53.2211 266.474 51.8335 260.538Z" stroke="#263238" stroke-miterlimit="10" stroke-linecap="round" stroke-linejoin="round"/>
<path d="M60.386 267.155C46.9906 280.938 55.783 300.135 69.8322 299.895C85.7492 299.627 84.4684 273.733 76.9835 285.657C69.4986 297.582 88.2441 317.768 98.0772 306.124" stroke="#263238" stroke-miterlimit="10" stroke-linecap="round" stroke-linejoin="round"/>
<path d="M369.52 141.826C369.52 109.488 334.751 83.2725 291.856 83.2725C248.962 83.2725 214.192 109.488 214.192 141.826C214.192 172.306 245.092 197.346 284.558 200.113L291.856 219.19L299.154 200.113C338.62 197.346 369.52 172.306 369.52 141.826Z" fill="white"/>
<path d="M297.34 132.776V123.471L292.243 123.07C291.75 121.092 290.963 119.233 289.949 117.522L293.271 113.632L286.706 107.041L282.824 110.37C281.116 109.354 279.262 108.565 277.287 108.071L276.887 102.964H267.601L267.2 108.071C265.226 108.565 263.371 109.341 261.663 110.37L257.781 107.041L251.203 113.632L254.526 117.522C253.512 119.233 252.724 121.092 252.231 123.07L247.134 123.471V132.776L252.231 133.177C252.724 135.155 253.512 137.013 254.526 138.725L251.203 142.628L257.781 149.205L261.663 145.877C263.371 146.893 265.226 147.681 267.2 148.176L267.601 153.283H276.887L277.287 148.176C279.262 147.681 281.116 146.906 282.824 145.877L286.706 149.205L293.271 142.628L289.949 138.725C290.963 137.013 291.75 135.155 292.243 133.177L297.34 132.776ZM272.23 137.08C267.294 137.08 263.291 133.07 263.291 128.123C263.291 123.177 267.294 119.166 272.23 119.166C277.167 119.166 281.17 123.177 281.17 128.123C281.17 133.07 277.167 137.08 272.23 137.08Z" fill="#2880B9" stroke="#263238" stroke-miterlimit="10" stroke-linecap="round" stroke-linejoin="round"/>
<path d="M336.606 144.205V137L332.656 136.692C332.269 135.155 331.669 133.724 330.882 132.401L333.444 129.393L328.36 124.299L325.358 126.866C324.037 126.077 322.61 125.476 321.075 125.088L320.755 121.145H313.577L313.27 125.088C311.736 125.476 310.308 126.077 308.988 126.866L305.986 124.299L300.902 129.393L303.464 132.401C302.677 133.724 302.076 135.155 301.69 136.692L297.754 137V144.205L301.69 144.513C302.076 146.037 302.677 147.48 303.464 148.804L300.902 151.812L305.986 156.905L308.988 154.338C310.308 155.127 311.736 155.729 313.27 156.116L313.577 160.06H320.755L321.075 156.116C322.596 155.729 324.037 155.127 325.358 154.338L328.36 156.905L333.444 151.812L330.882 148.804C331.669 147.48 332.269 146.05 332.656 144.513L336.606 144.205ZM317.18 147.534C313.364 147.534 310.268 144.432 310.268 140.609C310.268 136.786 313.364 133.684 317.18 133.684C320.995 133.684 324.091 136.786 324.091 140.609C324.091 144.432 320.995 147.534 317.18 147.534Z" fill="#2880B9"/>
<mask id="mask0_302_2137" style="mask-type:luminance" maskUnits="userSpaceOnUse" x="297" y="121" width="40" height="40">
<path d="M336.606 144.205V137L332.656 136.692C332.269 135.155 331.669 133.724 330.882 132.401L333.444 129.393L328.36 124.299L325.358 126.866C324.037 126.077 322.61 125.476 321.075 125.088L320.755 121.145H313.577L313.27 125.088C311.736 125.476 310.308 126.077 308.988 126.866L305.986 124.299L300.902 129.393L303.464 132.401C302.677 133.724 302.076 135.155 301.69 136.692L297.754 137V144.205L301.69 144.513C302.076 146.037 302.677 147.48 303.464 148.804L300.902 151.812L305.986 156.905L308.988 154.338C310.308 155.127 311.736 155.729 313.27 156.116L313.577 160.06H320.755L321.075 156.116C322.596 155.729 324.037 155.127 325.358 154.338L328.36 156.905L333.444 151.812L330.882 148.804C331.669 147.48 332.269 146.05 332.656 144.513L336.606 144.205ZM317.18 147.534C313.364 147.534 310.268 144.432 310.268 140.609C310.268 136.786 313.364 133.684 317.18 133.684C320.995 133.684 324.091 136.786 324.091 140.609C324.091 144.432 320.995 147.534 317.18 147.534Z" fill="white"/>
</mask>
<g mask="url(#mask0_302_2137)">
<path opacity="0.5" d="M336.606 144.205V137L332.656 136.692C332.269 135.155 331.669 133.724 330.882 132.401L333.444 129.393L328.36 124.299L325.358 126.866C324.037 126.077 322.61 125.476 321.075 125.088L320.755 121.145H313.577L313.27 125.088C311.736 125.476 310.308 126.077 308.988 126.866L305.986 124.299L300.902 129.393L303.464 132.401C302.677 133.724 302.076 135.155 301.69 136.692L297.754 137V144.205L301.69 144.513C302.076 146.037 302.677 147.48 303.464 148.804L300.902 151.812L305.986 156.905L308.988 154.338C310.308 155.127 311.736 155.729 313.27 156.116L313.577 160.06H320.755L321.075 156.116C322.596 155.729 324.037 155.127 325.358 154.338L328.36 156.905L333.444 151.812L330.882 148.804C331.669 147.48 332.269 146.05 332.656 144.513L336.606 144.205ZM317.18 147.534C313.364 147.534 310.268 144.432 310.268 140.609C310.268 136.786 313.364 133.684 317.18 133.684C320.995 133.684 324.091 136.786 324.091 140.609C324.091 144.432 320.995 147.534 317.18 147.534Z" fill="white"/>
</g>
<path d="M336.606 144.205V137L332.656 136.692C332.269 135.155 331.669 133.724 330.882 132.401L333.444 129.393L328.36 124.299L325.358 126.866C324.037 126.077 322.61 125.476 321.075 125.088L320.755 121.145H313.577L313.27 125.088C311.736 125.476 310.308 126.077 308.988 126.866L305.986 124.299L300.902 129.393L303.464 132.401C302.677 133.724 302.076 135.155 301.69 136.692L297.754 137V144.205L301.69 144.513C302.076 146.037 302.677 147.48 303.464 148.804L300.902 151.812L305.986 156.905L308.988 154.338C310.308 155.127 311.736 155.729 313.27 156.116L313.577 160.06H320.755L321.075 156.116C322.596 155.729 324.037 155.127 325.358 154.338L328.36 156.905L333.444 151.812L330.882 148.804C331.669 147.48 332.269 146.05 332.656 144.513L336.606 144.205ZM317.18 147.534C313.364 147.534 310.268 144.432 310.268 140.609C310.268 136.786 313.364 133.684 317.18 133.684C320.995 133.684 324.091 136.786 324.091 140.609C324.091 144.432 320.995 147.534 317.18 147.534Z" stroke="#263238" stroke-miterlimit="10" stroke-linecap="round" stroke-linejoin="round"/>
<path d="M302.744 169.298V164.125L299.915 163.897C299.635 162.801 299.208 161.758 298.634 160.809L300.475 158.644L296.82 154.981L294.658 156.825C293.711 156.264 292.684 155.823 291.576 155.542L291.349 152.708H286.186L285.959 155.542C284.865 155.823 283.825 156.251 282.877 156.825L280.716 154.981L277.06 158.644L278.901 160.809C278.341 161.758 277.901 162.788 277.62 163.897L274.792 164.125V169.298L277.62 169.526C277.901 170.622 278.328 171.664 278.901 172.614L277.06 174.779L280.716 178.442L282.877 176.597C283.825 177.159 284.865 177.6 285.959 177.881L286.186 180.715H291.349L291.576 177.881C292.67 177.6 293.711 177.172 294.658 176.597L296.82 178.442L300.475 174.779L298.634 172.614C299.208 171.664 299.635 170.635 299.915 169.526L302.744 169.298ZM288.774 171.691C286.026 171.691 283.798 169.459 283.798 166.705C283.798 163.951 286.026 161.718 288.774 161.718C291.523 161.718 293.751 163.951 293.751 166.705C293.751 169.459 291.523 171.691 288.774 171.691Z" fill="#2880B9"/>
<mask id="mask1_302_2137" style="mask-type:luminance" maskUnits="userSpaceOnUse" x="274" y="152" width="29" height="29">
<path d="M302.744 169.298V164.125L299.915 163.897C299.635 162.801 299.208 161.758 298.634 160.809L300.475 158.644L296.82 154.981L294.658 156.825C293.711 156.264 292.684 155.823 291.576 155.542L291.349 152.708H286.186L285.959 155.542C284.865 155.823 283.825 156.251 282.877 156.825L280.716 154.981L277.06 158.644L278.901 160.809C278.341 161.758 277.901 162.788 277.62 163.897L274.792 164.125V169.298L277.62 169.526C277.901 170.622 278.328 171.664 278.901 172.614L277.06 174.779L280.716 178.442L282.877 176.597C283.825 177.159 284.865 177.6 285.959 177.881L286.186 180.715H291.349L291.576 177.881C292.67 177.6 293.711 177.172 294.658 176.597L296.82 178.442L300.475 174.779L298.634 172.614C299.208 171.664 299.635 170.635 299.915 169.526L302.744 169.298ZM288.774 171.691C286.026 171.691 283.798 169.459 283.798 166.705C283.798 163.951 286.026 161.718 288.774 161.718C291.523 161.718 293.751 163.951 293.751 166.705C293.751 169.459 291.523 171.691 288.774 171.691Z" fill="white"/>
</mask>
<g mask="url(#mask1_302_2137)">
<path opacity="0.7" d="M302.744 169.298V164.125L299.915 163.897C299.635 162.801 299.208 161.758 298.634 160.809L300.475 158.644L296.82 154.981L294.658 156.825C293.711 156.264 292.684 155.823 291.576 155.542L291.349 152.708H286.186L285.959 155.542C284.865 155.823 283.825 156.251 282.877 156.825L280.716 154.981L277.06 158.644L278.901 160.809C278.341 161.758 277.901 162.788 277.62 163.897L274.792 164.125V169.298L277.62 169.526C277.901 170.622 278.328 171.664 278.901 172.614L277.06 174.779L280.716 178.442L282.877 176.597C283.825 177.159 284.865 177.6 285.959 177.881L286.186 180.715H291.349L291.576 177.881C292.67 177.6 293.711 177.172 294.658 176.597L296.82 178.442L300.475 174.779L298.634 172.614C299.208 171.664 299.635 170.635 299.915 169.526L302.744 169.298ZM288.774 171.691C286.026 171.691 283.798 169.459 283.798 166.705C283.798 163.951 286.026 161.718 288.774 161.718C291.523 161.718 293.751 163.951 293.751 166.705C293.751 169.459 291.523 171.691 288.774 171.691Z" fill="white"/>
</g>
<path d="M302.744 169.298V164.125L299.915 163.897C299.635 162.801 299.208 161.758 298.634 160.809L300.475 158.644L296.82 154.981L294.658 156.825C293.711 156.264 292.684 155.823 291.576 155.542L291.349 152.708H286.186L285.959 155.542C284.865 155.823 283.825 156.251 282.877 156.825L280.716 154.981L277.06 158.644L278.901 160.809C278.341 161.758 277.901 162.788 277.62 163.897L274.792 164.125V169.298L277.62 169.526C277.901 170.622 278.328 171.664 278.901 172.614L277.06 174.779L280.716 178.442L282.877 176.597C283.825 177.159 284.865 177.6 285.959 177.881L286.186 180.715H291.349L291.576 177.881C292.67 177.6 293.711 177.172 294.658 176.597L296.82 178.442L300.475 174.779L298.634 172.614C299.208 171.664 299.635 170.635 299.915 169.526L302.744 169.298ZM288.774 171.691C286.026 171.691 283.798 169.459 283.798 166.705C283.798 163.951 286.026 161.718 288.774 161.718C291.523 161.718 293.751 163.951 293.751 166.705C293.751 169.459 291.523 171.691 288.774 171.691Z" stroke="#263238" stroke-miterlimit="10" stroke-linecap="round" stroke-linejoin="round"/>
<path d="M415.657 336.845L406.184 344.077C391.428 338.382 392.375 337.099 378.259 335.053C370.948 333.997 355.805 334.438 343.077 335.107C331.576 335.695 322.036 336.47 322.036 336.47C322.036 336.47 350.174 308.45 357.913 304.293C365.531 300.215 399.633 285.55 400.701 285.095C400.714 285.095 400.727 285.082 400.727 285.082C400.727 285.082 426.331 313.664 415.657 336.845Z" fill="#2880B9"/>
<path opacity="0.2" d="M415.657 336.845L406.184 344.077C391.428 338.382 392.375 337.099 378.259 335.053C370.948 333.997 355.805 334.438 343.076 335.107C358.913 324.131 401.741 333.128 401.741 333.128C401.741 333.128 395.11 324.666 394.59 307.514C394.083 291.004 400.234 285.496 400.701 285.095C400.714 285.095 400.727 285.082 400.727 285.082C400.727 285.082 426.331 313.664 415.657 336.845Z" fill="white"/>
<path d="M322.036 336.484C322.036 336.484 350.174 308.463 357.913 304.306C365.651 300.162 400.727 285.082 400.727 285.082C400.727 285.082 426.317 313.664 415.657 336.845L406.184 344.077" stroke="#263238" stroke-miterlimit="10" stroke-linecap="round" stroke-linejoin="round"/>
<path d="M457.271 292.796L414.283 331.899C394.11 314.694 400.607 288.785 400.607 288.785L416.057 277.917L434.709 264.789C434.709 264.789 444.823 269.441 451.801 276.232C456.67 280.992 460.006 286.794 457.271 292.796Z" fill="white"/>
<mask id="mask2_302_2137" style="mask-type:luminance" maskUnits="userSpaceOnUse" x="399" y="264" width="60" height="68">
<path d="M457.271 292.796L414.283 331.899C394.11 314.694 400.607 288.785 400.607 288.785L416.057 277.917L434.709 264.789C434.709 264.789 444.823 269.441 451.801 276.232C456.67 280.992 460.006 286.794 457.271 292.796Z" fill="white"/>
</mask>
<g mask="url(#mask2_302_2137)">
<path opacity="0.2" d="M451.801 276.232C451.187 278.211 449.786 280.216 447.358 282.222C433.455 293.759 422.088 285.029 416.057 277.917L434.71 264.789C434.71 264.789 444.823 269.441 451.801 276.232Z" fill="#2880B9"/>
</g>
<path d="M457.271 292.796L414.283 331.899C394.11 314.694 400.607 288.785 400.607 288.785L416.057 277.917L434.709 264.789C434.709 264.789 444.823 269.441 451.801 276.232C456.67 280.992 460.006 286.794 457.271 292.796Z" stroke="#263238" stroke-miterlimit="10" stroke-linecap="round" stroke-linejoin="round"/>
<path d="M439.926 288.438C439.926 288.438 432.855 286.833 427.678 276.807C422.501 266.767 423.102 219.563 424.263 210.205C425.423 200.847 443.315 195.701 444.156 205.112C444.289 206.542 444.836 209.35 445.65 213.133C446.717 217.986 448.212 224.443 449.813 231.582C455.203 255.498 461.834 287.168 457.271 292.796" fill="white"/>
<mask id="mask3_302_2137" style="mask-type:luminance" maskUnits="userSpaceOnUse" x="423" y="200" width="36" height="93">
<path d="M439.926 288.438C439.926 288.438 432.855 286.833 427.678 276.807C422.501 266.767 423.102 219.563 424.263 210.205C425.423 200.847 443.315 195.701 444.156 205.112C444.289 206.542 444.836 209.35 445.65 213.133C446.717 217.986 448.212 224.443 449.813 231.582C455.203 255.498 461.834 287.168 457.271 292.796" fill="white"/>
</mask>
<g mask="url(#mask3_302_2137)">
<path opacity="0.2" d="M449.812 231.581C441.901 225.713 436.297 214.67 436.297 214.67L445.65 213.133C446.717 217.986 448.211 224.443 449.812 231.581Z" fill="#2880B9"/>
</g>
<path d="M439.926 288.438C439.926 288.438 432.855 286.833 427.678 276.807C422.501 266.767 423.102 219.563 424.263 210.205C425.423 200.847 443.315 195.701 444.156 205.112C444.289 206.542 444.836 209.35 445.65 213.133C446.717 217.986 448.212 224.443 449.813 231.582C455.203 255.498 461.834 287.168 457.271 292.796" stroke="#263238" stroke-miterlimit="10" stroke-linecap="round" stroke-linejoin="round"/>
<path d="M495.496 147.534C495.496 147.534 495.482 147.641 495.456 147.788C494.762 155.368 485.502 153.938 473.294 156.05C463.995 157.654 451.84 165.194 442.915 171.557C435.883 176.557 430.867 180.822 430.867 180.822C430.867 180.822 420.62 173.99 411.361 154.994C411.361 154.994 444.876 133.912 448.785 107.83C451.867 87.376 481.446 107.415 492.574 135.382C494.788 140.93 495.682 144.807 495.496 147.534Z" fill="white"/>
<mask id="mask4_302_2137" style="mask-type:luminance" maskUnits="userSpaceOnUse" x="411" y="99" width="85" height="82">
<path d="M495.496 147.534C495.496 147.534 495.482 147.641 495.456 147.788C494.762 155.368 485.502 153.938 473.294 156.05C463.995 157.654 451.84 165.194 442.915 171.557C435.883 176.557 430.867 180.822 430.867 180.822C430.867 180.822 420.62 173.99 411.361 154.994C411.361 154.994 444.876 133.912 448.785 107.83C451.867 87.376 481.446 107.415 492.574 135.382C494.788 140.93 495.682 144.807 495.496 147.534Z" fill="white"/>
</mask>
<g mask="url(#mask4_302_2137)">
<path opacity="0.15" d="M495.456 147.788C494.762 155.368 485.502 153.938 473.294 156.05C463.995 157.654 451.841 165.194 442.915 171.557C438.845 169.151 436.604 166.825 437.511 164.806C441.634 155.649 457.137 152.708 457.137 152.708C457.137 152.708 455.816 146.705 458.231 143.804C460.646 140.89 469.532 146.705 482.207 151.224C493.574 155.288 495.229 149.125 495.456 147.788Z" fill="white"/>
</g>
<path d="M495.496 147.534C495.496 147.534 495.482 147.641 495.456 147.788C494.762 155.368 485.502 153.938 473.294 156.05C463.995 157.654 451.84 165.194 442.915 171.557C435.883 176.557 430.867 180.822 430.867 180.822C430.867 180.822 420.62 173.99 411.361 154.994C411.361 154.994 444.876 133.912 448.785 107.83C451.867 87.376 481.446 107.415 492.574 135.382C494.788 140.93 495.682 144.807 495.496 147.534Z" stroke="#263238" stroke-miterlimit="10" stroke-linecap="round" stroke-linejoin="round"/>
<path d="M460.58 124.768C468.785 121.653 471.947 116.078 473.521 117.335C475.109 118.591 480.793 122.749 479.872 125.169C478.952 127.588 471.573 136.171 470.84 137.695" stroke="#263238" stroke-miterlimit="10" stroke-linecap="round" stroke-linejoin="round"/>
<path d="M456.75 102.964C452.334 103.378 452.921 115.022 463.741 129.34C474.562 143.657 485.249 150.195 489.985 148.564C494.722 146.919 491.439 140.69 491.439 140.69" stroke="#263238" stroke-miterlimit="10" stroke-linecap="round" stroke-linejoin="round"/>
<path d="M446.25 171.65C446.25 171.65 425.663 187.225 421.301 187.078C416.924 186.944 410.947 186.824 405.197 179.137C400.754 173.188 401.408 168.054 402.689 164.431C403.049 163.362 403.476 162.44 403.836 161.651C404.73 159.699 421.754 142.521 421.754 142.521L425.984 143.643C425.984 143.643 428.732 159.057 445.49 169.752L446.25 171.65Z" fill="#2880B9"/>
<mask id="mask5_302_2137" style="mask-type:luminance" maskUnits="userSpaceOnUse" x="401" y="142" width="46" height="46">
<path d="M446.25 171.65C446.25 171.65 425.663 187.225 421.301 187.078C416.924 186.944 410.947 186.824 405.197 179.137C400.754 173.188 401.408 168.054 402.689 164.431C403.049 163.362 403.476 162.44 403.836 161.651C404.73 159.699 421.754 142.521 421.754 142.521L425.984 143.643C425.984 143.643 428.732 159.057 445.49 169.752L446.25 171.65Z" fill="white"/>
</mask>
<g mask="url(#mask5_302_2137)">
<path opacity="0.2" d="M446.25 171.65C446.25 171.65 425.663 187.225 421.301 187.078C416.924 186.944 410.947 186.824 405.197 179.137C400.754 173.188 401.408 168.054 402.689 164.432C403.756 168.616 405.811 174.618 409.106 176.998C414.376 180.821 436.297 168.536 436.297 168.536C436.297 168.536 424.129 153.523 425.984 143.644C425.984 143.644 428.732 159.057 445.49 169.752L446.25 171.65Z" fill="white"/>
</g>
<path d="M446.25 171.65C446.25 171.65 425.663 187.225 421.301 187.078C416.924 186.944 410.947 186.824 405.197 179.137C400.754 173.188 401.408 168.054 402.689 164.431C403.049 163.362 403.476 162.44 403.836 161.651C404.73 159.699 421.754 142.521 421.754 142.521L425.984 143.643C425.984 143.643 428.732 159.057 445.49 169.752L446.25 171.65Z" stroke="#263238" stroke-miterlimit="10" stroke-linecap="round" stroke-linejoin="round"/>
<path opacity="0.15" d="M456.75 102.964C452.334 103.378 452.921 115.022 463.741 129.34C474.562 143.657 485.249 150.195 489.985 148.564C494.722 146.919 491.439 140.69 491.439 140.69C491.439 140.69 488.518 128.417 477.977 117.148C465.649 103.953 456.75 102.964 456.75 102.964Z" fill="white"/>
<path d="M462.794 195.768C462.314 201.703 446.504 223.32 436.297 218.641L462.794 195.768Z" fill="white"/>
<path d="M462.794 195.768C462.314 201.703 446.504 223.32 436.297 218.641" stroke="#263238" stroke-miterlimit="10" stroke-linecap="round" stroke-linejoin="round"/>
<path d="M424.449 185.327C424.449 185.327 432.575 208.013 438.459 212.17C444.329 216.341 459.512 203.682 458.138 201.529C456.777 199.39 442.101 185.728 439.779 174.632C439.779 174.632 432.868 175.594 424.449 185.327Z" fill="#2880B9"/>
<mask id="mask6_302_2137" style="mask-type:luminance" maskUnits="userSpaceOnUse" x="424" y="174" width="35" height="40">
<path d="M424.449 185.327C424.449 185.327 432.575 208.013 438.459 212.17C444.329 216.341 459.512 203.682 458.138 201.529C456.777 199.39 442.101 185.728 439.779 174.632C439.779 174.632 432.868 175.594 424.449 185.327Z" fill="white"/>
</mask>
<g mask="url(#mask6_302_2137)">
<path opacity="0.2" d="M424.449 185.327C424.449 185.327 432.575 208.013 438.459 212.17C444.329 216.341 459.512 203.682 458.138 201.529C456.777 199.39 442.101 185.728 439.779 174.632C439.779 174.632 432.868 175.594 424.449 185.327Z" fill="white"/>
</g>
<path d="M424.449 185.327C424.449 185.327 432.575 208.013 438.459 212.17C444.329 216.341 459.512 203.682 458.138 201.529C456.777 199.39 442.101 185.728 439.779 174.632C439.779 174.632 432.868 175.594 424.449 185.327Z" stroke="#263238" stroke-miterlimit="10" stroke-linecap="round" stroke-linejoin="round"/>
<path d="M462.461 197.666C463.848 192.987 460.459 194.257 461.006 189.859C461.553 185.46 458.725 185.474 457.831 180.942C456.937 176.41 454.149 176.851 452.521 173.108C450.893 169.365 446.811 170.862 442.861 172.693C438.912 174.512 433.615 183.214 433.615 183.214C432.828 188.802 437.498 187.639 437.498 187.639C434.402 193.388 439.566 194.645 439.566 194.645C439.286 200.821 443.021 200.059 443.021 200.059C443.021 200.059 442.835 202.933 445.623 203.414C447.411 203.695 461.073 202.345 462.461 197.666Z" fill="white" stroke="#263238" stroke-miterlimit="10" stroke-linecap="round" stroke-linejoin="round"/>
<path d="M437.498 187.626C437.498 187.626 445.036 179.645 447.344 178.736" stroke="#263238" stroke-miterlimit="10" stroke-linecap="round" stroke-linejoin="round"/>
<path d="M439.566 194.631C439.566 194.631 444.116 189.525 451.68 186.958" stroke="#263238" stroke-miterlimit="10" stroke-linecap="round" stroke-linejoin="round"/>
<path d="M443.021 200.045C443.021 200.045 453.028 195.099 454.496 194.645" stroke="#263238" stroke-miterlimit="10" stroke-linecap="round" stroke-linejoin="round"/>
<path d="M429.786 217.585C429.786 217.585 422.448 210.78 421.114 207.893C419.78 205.005 417.205 192.573 419.046 189.23C420.887 185.888 426.277 180.327 427.118 177.653C427.958 174.98 432.615 180.835 427.291 191.53C427.291 191.53 433.669 199.27 432.628 207.732" fill="white"/>
<path d="M429.786 217.585C429.786 217.585 422.448 210.78 421.114 207.893C419.78 205.005 417.205 192.573 419.046 189.23C420.887 185.888 426.277 180.327 427.118 177.653C427.958 174.98 432.615 180.835 427.291 191.53C427.291 191.53 433.669 199.27 432.628 207.732" stroke="#263238" stroke-miterlimit="10" stroke-linecap="round" stroke-linejoin="round"/>
<path opacity="0.15" d="M495.496 147.534C495.496 147.534 495.482 147.641 495.456 147.788C495.456 147.708 495.482 147.628 495.496 147.534Z" fill="white"/>
<path d="M425.423 415.465C425.423 415.465 422.488 416.655 418.259 411.361C410.213 401.281 398.179 377.071 390.267 365.467C386.878 360.494 377.512 355.601 367.385 351.497C351.722 345.161 334.244 340.682 334.244 340.682C334.244 340.682 376.858 338.049 387.679 341.31C397.045 344.118 430.213 363.128 439.672 368.595C441.287 369.531 442.207 370.066 442.207 370.066C442.207 370.066 443.635 390.199 425.423 415.465Z" fill="#2880B9"/>
<path opacity="0.2" d="M425.423 415.465C425.423 415.465 422.488 416.655 418.258 411.361C410.213 401.281 398.179 377.071 390.267 365.467C386.878 360.494 377.512 355.601 367.385 351.497C406.037 360.347 419.739 399.223 419.739 399.223C419.739 399.223 421.794 377.151 439.672 368.595C441.287 369.531 442.207 370.066 442.207 370.066C442.207 370.066 443.635 390.199 425.423 415.465Z" fill="white"/>
<path d="M334.23 340.682C334.23 340.682 376.845 338.049 387.665 341.31C398.619 344.612 442.207 370.066 442.207 370.066C442.207 370.066 443.622 390.199 425.423 415.465" stroke="#263238" stroke-miterlimit="10" stroke-linecap="round" stroke-linejoin="round"/>
<path d="M496.496 432.818C494.295 434.315 490.079 434.302 484.729 433.313C479.819 432.404 473.962 430.679 467.851 428.553C447.371 421.441 424.062 409.891 424.062 409.891C424.062 409.891 424.129 382.459 440.22 371.831C440.22 371.831 461.087 386.149 474.522 389.691C485.783 392.672 496.496 432.818 496.496 432.818Z" fill="white"/>
<mask id="mask7_302_2137" style="mask-type:luminance" maskUnits="userSpaceOnUse" x="424" y="371" width="73" height="64">
<path d="M496.496 432.818C494.295 434.315 490.079 434.302 484.729 433.313C479.819 432.404 473.962 430.679 467.851 428.553C447.371 421.441 424.062 409.891 424.062 409.891C424.062 409.891 424.129 382.459 440.22 371.831C440.22 371.831 461.087 386.149 474.522 389.691C485.783 392.672 496.496 432.818 496.496 432.818Z" fill="white"/>
</mask>
<g mask="url(#mask7_302_2137)">
<path opacity="0.2" d="M484.729 433.312C479.819 432.403 473.962 430.679 467.851 428.553C464.849 414.663 473.575 399.223 473.575 399.223C473.909 414.022 479.632 425.746 484.729 433.312Z" fill="#2880B9"/>
</g>
<path d="M496.496 432.818C494.295 434.315 490.079 434.302 484.729 433.313C479.819 432.404 473.962 430.679 467.851 428.553C447.371 421.441 424.062 409.891 424.062 409.891C424.062 409.891 424.129 382.459 440.22 371.831C440.22 371.831 461.087 386.149 474.522 389.691C485.783 392.672 496.496 432.818 496.496 432.818Z" stroke="#263238" stroke-miterlimit="10" stroke-linecap="round" stroke-linejoin="round"/>
<path d="M477.283 424.903C476.069 422.042 475.162 418.473 474.508 414.088L477.283 424.903Z" fill="white"/>
<path d="M477.283 424.903C476.069 422.042 475.162 418.473 474.508 414.088" stroke="#263238" stroke-miterlimit="10" stroke-linecap="round" stroke-linejoin="round"/>
<path d="M477.297 378.568C483.221 379.504 488.664 392.284 492.333 396.83C492.333 396.83 502.78 401.709 504.568 406.308C506.342 410.907 513.48 429.342 499.338 433.138C491.213 435.318 485.142 434.93 480.926 430.625" fill="white"/>
<path d="M477.297 378.568C483.221 379.504 488.664 392.284 492.333 396.83C492.333 396.83 502.78 401.709 504.568 406.308C506.342 410.907 513.48 429.342 499.338 433.138C491.213 435.318 485.142 434.93 480.926 430.625" stroke="#263238" stroke-miterlimit="10" stroke-linecap="round" stroke-linejoin="round"/>
<path d="M478.631 360.401V360.829C478.564 364.759 477.457 372.553 474.962 386.362C472.627 399.276 472.187 400.279 470.626 400.934C468.718 401.723 455.042 404.771 449.212 406.027C448.732 406.121 448.305 406.215 447.944 406.295C447.104 406.482 444.889 405.319 445.036 404.477C445.73 400.212 450.479 361.657 452.387 360.401C455.282 358.502 474.001 356.711 476.083 357.286C477.057 357.553 478.631 359.398 478.631 360.401Z" fill="#999999"/>
<mask id="mask8_302_2137" style="mask-type:luminance" maskUnits="userSpaceOnUse" x="445" y="357" width="34" height="50">
<path d="M478.631 360.401V360.829C478.564 364.759 477.457 372.553 474.962 386.362C472.627 399.276 472.187 400.279 470.626 400.934C468.718 401.723 455.042 404.771 449.212 406.027C448.732 406.121 448.305 406.215 447.944 406.295C447.104 406.482 444.889 405.319 445.036 404.477C445.73 400.212 450.479 361.657 452.387 360.401C455.282 358.502 474.001 356.711 476.083 357.286C477.057 357.553 478.631 359.398 478.631 360.401Z" fill="white"/>
</mask>
<g mask="url(#mask8_302_2137)">
<path opacity="0.2" d="M478.631 360.828C478.564 364.758 477.457 372.552 474.962 386.362C472.627 399.276 472.187 400.278 470.626 400.934C468.718 401.722 455.042 404.77 449.212 406.027C449.919 400.452 452.054 384.878 456.457 363.542L478.631 360.828Z" fill="white"/>
</g>
<path d="M478.631 360.401V360.829C478.564 364.759 477.457 372.553 474.962 386.362C472.627 399.276 472.187 400.279 470.626 400.934C468.718 401.723 455.042 404.771 449.212 406.027C448.732 406.121 448.305 406.215 447.944 406.295C447.104 406.482 444.889 405.319 445.036 404.477C445.73 400.212 450.479 361.657 452.387 360.401C455.282 358.502 474.001 356.711 476.083 357.286C477.057 357.553 478.631 359.398 478.631 360.401Z" stroke="#263238" stroke-miterlimit="10" stroke-linecap="round" stroke-linejoin="round"/>
<path d="M448.932 403.3C448.932 403.3 455.162 366.978 455.709 364.759C456.27 362.526 456.817 363.422 475.496 360.976" stroke="#263238" stroke-miterlimit="10" stroke-linecap="round" stroke-linejoin="round"/>
<path d="M474.508 414.088C474.508 414.088 464.835 417.551 465.503 411.642C465.503 411.642 463.274 410.078 463.274 407.631C463.274 405.185 464.835 402.511 464.835 402.511C464.835 402.511 461.166 408.861 458.058 405.185C457.244 404.222 460.553 397.324 460.553 397.324C460.553 397.324 457.497 399.169 456.056 395.72C455.616 394.664 460.713 385.172 461.82 384.464C465.556 382.111 475.282 377.084 478.618 378.996C481.953 380.908 483.061 386.923 485.062 389.143C487.063 391.375 485.956 398.942 485.062 404.289" fill="white"/>
<path d="M474.508 414.088C474.508 414.088 464.835 417.551 465.503 411.642C465.503 411.642 463.274 410.078 463.274 407.631C463.274 405.185 464.835 402.511 464.835 402.511C464.835 402.511 461.166 408.861 458.058 405.185C457.244 404.222 460.553 397.324 460.553 397.324C460.553 397.324 457.497 399.169 456.056 395.72C455.616 394.664 460.713 385.172 461.82 384.464C465.556 382.111 475.282 377.084 478.618 378.996C481.953 380.908 483.061 386.923 485.062 389.143C487.063 391.375 485.956 398.942 485.062 404.289" stroke="#263238" stroke-miterlimit="10" stroke-linecap="round" stroke-linejoin="round"/>
<path d="M460.553 397.324C460.553 397.324 464.062 391.268 465.062 390.479C466.063 389.691 474.508 387.244 474.508 387.244" fill="white"/>
<path d="M460.553 397.324C460.553 397.324 464.062 391.268 465.062 390.479C466.063 389.691 474.508 387.244 474.508 387.244" stroke="#263238" stroke-miterlimit="10" stroke-linecap="round" stroke-linejoin="round"/>
<path d="M464.835 402.511C466.943 400.171 468.171 397.471 469.065 397.311C469.959 397.15 476.737 396.147 477.297 395.934" fill="white"/>
<path d="M464.835 402.511C466.943 400.171 468.171 397.471 469.065 397.311C469.959 397.15 476.737 396.147 477.297 395.934" stroke="#263238" stroke-miterlimit="10" stroke-linecap="round" stroke-linejoin="round"/>
<path d="M465.142 411.361C467.504 408.647 471.173 405.853 471.947 405.853C472.721 405.853 477.057 405.292 477.284 405.185" fill="white"/>
<path d="M465.142 411.361C467.504 408.647 471.173 405.853 471.947 405.853C472.721 405.853 477.057 405.292 477.284 405.185" stroke="#263238" stroke-miterlimit="10" stroke-linecap="round" stroke-linejoin="round"/>
<path d="M476.083 412.765C476.083 412.765 474.068 414.543 471.066 413.995L476.083 412.765Z" fill="white"/>
<path d="M476.083 412.765C476.083 412.765 474.068 414.543 471.066 413.995" stroke="#263238" stroke-miterlimit="10" stroke-linecap="round" stroke-linejoin="round"/>
<path d="M474.508 414.089C474.508 414.089 483.314 421.455 487.317 412.752L474.508 414.089Z" fill="white"/>
<path d="M474.508 414.089C474.508 414.089 483.314 421.455 487.317 412.752" stroke="#263238" stroke-miterlimit="10" stroke-linecap="round" stroke-linejoin="round"/>
<path d="M258.848 335.856C258.848 335.856 254.952 335.749 249.309 335.602C236.314 335.281 214.019 334.8 208.736 335.134C198.969 335.762 189.47 340.281 189.47 340.281L167.949 310.87C171.231 270.11 197.168 265.645 197.168 265.645C197.168 265.645 215.487 286.593 222.158 292.301C228.829 298.01 258.848 335.856 258.848 335.856Z" fill="#2880B9"/>
<path opacity="0.2" d="M249.309 335.602C236.314 335.281 214.019 334.8 208.736 335.134C198.969 335.762 189.47 340.281 189.47 340.281L167.949 310.87C171.231 270.11 197.168 265.645 197.168 265.645C197.168 265.645 198.689 290.537 178.85 307.608C178.85 307.608 184.987 324.88 198.382 328.303C211.791 331.725 237.928 328.917 249.309 335.602Z" fill="white"/>
<path d="M258.848 335.856C258.848 335.856 228.829 298.01 222.158 292.301C215.487 286.593 197.168 265.645 197.168 265.645C197.168 265.645 171.232 270.11 167.936 310.87L189.457 340.281" stroke="#263238" stroke-miterlimit="10" stroke-linecap="round" stroke-linejoin="round"/>
<path d="M195.46 270.551C195.46 270.551 194.993 292.421 171.231 304.186L130.098 245.859C127.203 230.084 158.783 224.202 158.783 224.202L158.796 224.229L173.686 243.038L195.46 270.551Z" fill="white"/>
<mask id="mask9_302_2137" style="mask-type:luminance" maskUnits="userSpaceOnUse" x="129" y="224" width="67" height="81">
<path d="M195.46 270.551C195.46 270.551 194.993 292.421 171.231 304.186L130.098 245.859C127.203 230.084 158.783 224.202 158.783 224.202L158.796 224.229L173.686 243.038L195.46 270.551Z" fill="white"/>
</mask>
<g mask="url(#mask9_302_2137)">
<path opacity="0.2" d="M173.686 243.038C159.797 254.04 144.387 242.169 144.387 242.169L158.796 224.229L173.686 243.038Z" fill="#2880B9"/>
</g>
<path d="M195.46 270.551C195.46 270.551 194.993 292.421 171.231 304.186L130.098 245.859C127.203 230.084 158.783 224.202 158.783 224.202L158.796 224.229L173.686 243.038L195.46 270.551Z" stroke="#263238" stroke-miterlimit="10" stroke-linecap="round" stroke-linejoin="round"/>
<path d="M130.098 245.859C128.417 242.25 130.098 233.494 133.087 223.347C136.516 211.703 141.652 198.201 145.428 188.549C147.509 183.188 149.177 179.017 149.884 176.972C153.006 168.055 169.097 177.413 167.949 186.771C166.789 196.129 170.151 229.109 162.693 237.571C155.221 246.047 147.976 245.859 147.976 245.859" fill="white"/>
<mask id="mask10_302_2137" style="mask-type:luminance" maskUnits="userSpaceOnUse" x="129" y="173" width="40" height="73">
<path d="M130.098 245.859C128.417 242.25 130.098 233.494 133.087 223.347C136.516 211.703 141.652 198.201 145.428 188.549C147.509 183.188 149.177 179.017 149.884 176.972C153.006 168.055 169.097 177.413 167.949 186.771C166.789 196.129 170.151 229.109 162.693 237.571C155.221 246.047 147.976 245.859 147.976 245.859" fill="white"/>
</mask>
<g mask="url(#mask10_302_2137)">
<path opacity="0.2" d="M156.208 183.175C156.208 183.175 150.178 219.256 144.387 221.368C141.959 222.251 137.476 222.893 133.087 223.347C136.516 211.703 141.652 198.201 145.428 188.549L156.208 183.175Z" fill="#2880B9"/>
</g>
<path d="M130.098 245.859C128.417 242.25 130.098 233.494 133.087 223.347C136.516 211.703 141.652 198.201 145.428 188.549C147.509 183.188 149.177 179.017 149.884 176.972C153.006 168.055 169.097 177.413 167.949 186.771C166.789 196.129 170.151 229.109 162.693 237.571C155.221 246.047 147.976 245.859 147.976 245.859" stroke="#263238" stroke-miterlimit="10" stroke-linecap="round" stroke-linejoin="round"/>
<path d="M143.053 203.936C141.839 205.607 139.504 205.995 137.823 204.778L81.613 164.085C79.9319 162.868 79.5583 160.529 80.7724 158.844L135.768 82.5907C136.982 80.9062 139.317 80.5319 140.998 81.7484L197.208 122.442C198.876 123.659 199.263 125.998 198.049 127.682L143.053 203.936Z" fill="#BFBFBF" stroke="#263238" stroke-miterlimit="10"/>
<path d="M155.269 90.4274L150.385 97.2002L179.607 118.357L184.491 111.584L155.269 90.4274Z" fill="#2880B9" stroke="#263238" stroke-miterlimit="10" stroke-linecap="round" stroke-linejoin="round"/>
<path d="M138.997 86.4684L85.4688 160.698L139.814 200.044L193.343 125.814L138.997 86.4684Z" fill="#2880B9"/>
<mask id="mask11_302_2137" style="mask-type:luminance" maskUnits="userSpaceOnUse" x="93" y="89" width="93" height="109">
<path d="M93.2351 110.306L121.956 197.276L185.595 176.199L156.875 89.2282L93.2351 110.306Z" fill="white"/>
</mask>
<g mask="url(#mask11_302_2137)">
<path opacity="0.7" d="M138.98 86.4678L85.4683 160.682L139.831 200.043L193.343 125.829L138.98 86.4678Z" fill="white"/>
</g>
<path d="M138.997 86.4684L85.4688 160.698L139.814 200.044L193.343 125.814L138.997 86.4684Z" stroke="#263238" stroke-width="1.00006" stroke-miterlimit="10" stroke-linecap="round" stroke-linejoin="round"/>
<path d="M178.476 111.948L175.514 116.052C175.047 116.694 174.18 116.827 173.539 116.373L166.148 111.012C166.575 109.809 166.188 108.419 165.094 107.63C164 106.841 162.572 106.908 161.558 107.697L154.153 102.336C153.526 101.881 153.38 100.999 153.833 100.357L156.795 96.2533C157.249 95.6249 158.143 95.4779 158.77 95.9324L178.156 109.969C178.796 110.424 178.93 111.32 178.476 111.948Z" stroke="#263238" stroke-miterlimit="10" stroke-linecap="round" stroke-linejoin="round"/>
<path d="M162.773 191.824C162.773 191.824 171.258 186.53 173.113 183.95C174.967 181.357 179.837 169.633 178.663 166.01C177.489 162.387 173.233 155.903 172.913 153.109C172.592 150.329 166.909 155.195 170.137 166.692C170.137 166.692 162.426 173.082 161.852 181.598" fill="white"/>
<path d="M162.773 191.824C162.773 191.824 171.258 186.53 173.113 183.95C174.967 181.357 179.837 169.633 178.663 166.01C177.489 162.387 173.233 155.903 172.913 153.109C172.592 150.329 166.909 155.195 170.137 166.692C170.137 166.692 162.426 173.082 161.852 181.598" stroke="#263238" stroke-miterlimit="10" stroke-linecap="round" stroke-linejoin="round"/>
<path d="M158.263 142.534C158.263 152.627 150.098 160.822 140.011 160.822C129.938 160.822 121.759 152.641 121.759 142.534C121.759 132.441 129.925 124.246 140.011 124.246C150.084 124.246 158.263 132.428 158.263 142.534Z" fill="white" stroke="#263238" stroke-miterlimit="10" stroke-linecap="round" stroke-linejoin="round"/>
<path d="M130.925 135.984L133.167 148.805L153.567 143.257" fill="white"/>
<path d="M130.925 135.984L133.167 148.805L153.567 143.257" stroke="#263238" stroke-miterlimit="10" stroke-linecap="round" stroke-linejoin="round"/>
<path d="M252.378 342.019C252.378 342.019 226.187 346.203 206.481 356.885C202.438 359.064 198.676 361.537 195.461 364.291C186.295 372.165 178.289 388.474 171.458 401.402C165.614 412.417 161.198 416.802 161.198 416.802C143 391.536 144.414 371.403 144.414 371.403C144.414 371.403 144.481 371.363 144.587 371.309C147.549 369.571 188.403 345.816 198.943 342.647C209.763 339.385 252.378 342.019 252.378 342.019Z" fill="#2880B9"/>
<path opacity="0.2" d="M206.481 356.885C202.438 359.064 198.676 361.537 195.461 364.291C186.295 372.165 178.289 388.474 171.458 401.402C165.614 412.417 161.198 416.802 161.198 416.802C143 391.536 144.414 371.403 144.414 371.403C144.414 371.403 144.481 371.363 144.587 371.309C145.988 370.681 155.421 367.539 167.949 391.629C167.949 391.629 176.608 363.302 206.481 356.885Z" fill="white"/>
<path d="M118.504 313.13C118.504 313.13 107.057 310.148 110.472 320.897C113.901 331.645 126.162 331.297 126.162 331.297" fill="white"/>
<path d="M118.504 313.13C118.504 313.13 107.057 310.148 110.472 320.897C113.901 331.645 126.162 331.297 126.162 331.297" stroke="#263238" stroke-miterlimit="10" stroke-linecap="round" stroke-linejoin="round"/>
<path d="M252.377 342.019C252.377 342.019 209.763 339.385 198.943 342.647C187.989 345.949 144.401 371.403 144.401 371.403C144.401 371.403 142.986 391.536 161.185 416.802" stroke="#263238" stroke-miterlimit="10" stroke-linecap="round" stroke-linejoin="round"/>
<path d="M162.572 411.228C162.572 411.228 99.1845 434.235 88.8311 421.736C88.8311 421.736 93.5274 408.514 99.9049 398.421C103.334 392.993 107.27 388.461 111.219 387.419C116.289 386.069 122.56 383.702 128.39 381.296C137.996 377.312 146.415 373.168 146.415 373.168C162.492 383.796 162.572 411.228 162.572 411.228Z" fill="white"/>
<mask id="mask12_302_2137" style="mask-type:luminance" maskUnits="userSpaceOnUse" x="88" y="373" width="75" height="53">
<path d="M162.572 411.228C162.572 411.228 99.1845 434.235 88.8311 421.736C88.8311 421.736 93.5274 408.514 99.9049 398.421C103.334 392.993 107.27 388.461 111.219 387.419C116.289 386.069 122.56 383.702 128.39 381.296C137.996 377.312 146.415 373.168 146.415 373.168C162.492 383.796 162.572 411.228 162.572 411.228Z" fill="white"/>
</mask>
<g mask="url(#mask12_302_2137)">
<path opacity="0.2" d="M128.39 381.296C126.576 389.892 121.479 405.921 108.684 404.878C103.721 404.477 101.106 401.91 99.905 398.421C103.334 392.993 107.27 388.461 111.219 387.419C116.289 386.068 122.56 383.702 128.39 381.296Z" fill="#2880B9"/>
</g>
<path d="M162.572 411.228C162.572 411.228 99.1845 434.235 88.8311 421.736C88.8311 421.736 93.5274 408.514 99.9049 398.421C103.334 392.993 107.27 388.461 111.219 387.419C116.289 386.069 122.56 383.702 128.39 381.296C137.996 377.312 146.415 373.168 146.415 373.168C162.492 383.796 162.572 411.228 162.572 411.228Z" stroke="#263238" stroke-miterlimit="10" stroke-linecap="round" stroke-linejoin="round"/>
<path d="M93.701 424.49C78.7847 425.158 77.8374 389.972 85.3356 337.715C85.3356 337.715 96.8364 314.841 102.147 314.534C103.574 314.454 105.549 314.414 107.657 314.414C113.38 314.374 120.158 314.534 120.158 314.534C120.158 314.534 123.227 327.782 123.254 332.287C123.294 339.038 120.332 339.8 120.332 339.8C120.492 346.164 115.355 346.805 109.845 345.936C109.845 345.936 109.751 346.257 109.458 346.739C108.724 347.969 106.736 350.255 101.933 350.869C101.853 371.256 121.613 402.124 111.152 408.862" fill="white"/>
<mask id="mask13_302_2137" style="mask-type:luminance" maskUnits="userSpaceOnUse" x="80" y="314" width="44" height="111">
<path d="M93.701 424.49C78.7847 425.158 77.8374 389.972 85.3356 337.715C85.3356 337.715 96.8364 314.841 102.147 314.534C103.574 314.454 105.549 314.414 107.657 314.414C113.38 314.374 120.158 314.534 120.158 314.534C120.158 314.534 123.227 327.782 123.254 332.287C123.294 339.038 120.332 339.8 120.332 339.8C120.492 346.164 115.355 346.805 109.845 345.936C109.845 345.936 109.751 346.257 109.458 346.739C108.724 347.969 106.736 350.255 101.933 350.869C101.853 371.256 121.613 402.124 111.152 408.862" fill="white"/>
</mask>
<g mask="url(#mask13_302_2137)">
<path opacity="0.2" d="M123.254 332.287C123.294 339.038 120.332 339.8 120.332 339.8C120.492 346.164 115.355 346.805 109.845 345.936C109.845 345.936 109.751 346.257 109.458 346.739L111.152 341.618C111.152 341.618 112.927 342.367 113.994 341.846C117.33 340.201 115.582 334.44 115.582 334.44C115.582 334.44 117.476 333.932 118.01 331.298C118.53 328.664 112.713 326.886 112.713 326.886C114.541 323.825 110.472 320.897 110.472 320.897C111.926 318.705 110.032 316.299 107.657 314.414C113.38 314.374 120.158 314.534 120.158 314.534C120.158 314.534 123.227 327.782 123.254 332.287Z" fill="#2880B9"/>
</g>
<path d="M93.701 424.49C78.7847 425.158 77.8374 389.972 85.3356 337.715C85.3356 337.715 96.8364 314.841 102.147 314.534C103.574 314.454 105.549 314.414 107.657 314.414C113.38 314.374 120.158 314.534 120.158 314.534C120.158 314.534 123.227 327.782 123.254 332.287C123.294 339.038 120.332 339.8 120.332 339.8C120.492 346.164 115.355 346.805 109.845 345.936C109.845 345.936 109.751 346.257 109.458 346.739C108.724 347.969 106.736 350.255 101.933 350.869C101.853 371.256 121.613 402.124 111.152 408.862" stroke="#263238" stroke-miterlimit="10" stroke-linecap="round" stroke-linejoin="round"/>
<path d="M120.225 330.335C118.384 326.939 116.609 328.904 107.75 326.765C107.75 326.765 113.474 327.34 117.837 326.284" stroke="#263238" stroke-miterlimit="10" stroke-linecap="round" stroke-linejoin="round"/>
<path d="M106.723 320.162C107.923 320.697 113.127 320.309 115.582 320.162" stroke="#263238" stroke-miterlimit="10" stroke-linecap="round" stroke-linejoin="round"/>
<path d="M109.832 334.506C109.805 334.252 117.29 334.88 118.504 335.763C119.718 336.645 120.479 339.96 120.479 339.96" stroke="#263238" stroke-miterlimit="10" stroke-linecap="round" stroke-linejoin="round"/>
<path d="M115.569 341.618C115.008 342.126 111.139 341.618 111.139 341.618C111.139 341.618 110.885 344.212 109.818 345.95" stroke="#263238" stroke-miterlimit="10" stroke-linecap="round" stroke-linejoin="round"/>
<path d="M156.208 308.866C156.208 319.828 151.739 329.373 145.148 334.386H124.001C117.396 329.373 112.927 319.828 112.927 308.866C112.927 308.411 112.967 307.97 112.98 307.516H156.155C156.182 307.97 156.208 308.411 156.208 308.866Z" fill="#757575"/>
<mask id="mask14_302_2137" style="mask-type:luminance" maskUnits="userSpaceOnUse" x="112" y="307" width="45" height="28">
<path d="M156.208 308.866C156.208 319.828 151.739 329.373 145.148 334.386H124.001C117.396 329.373 112.927 319.828 112.927 308.866C112.927 308.411 112.967 307.97 112.98 307.516H156.155C156.182 307.97 156.208 308.411 156.208 308.866Z" fill="white"/>
</mask>
<g mask="url(#mask14_302_2137)">
<path opacity="0.2" d="M140.011 333.13L139.918 334.386H124.001C117.396 329.373 112.927 319.828 112.927 308.866C112.927 308.411 112.967 307.97 112.98 307.516H117.677C120.919 315.51 128.043 329.199 140.011 333.13Z" fill="white"/>
</g>
<path d="M156.208 308.866C156.208 319.828 151.739 329.373 145.148 334.386H124.001C117.396 329.373 112.927 319.828 112.927 308.866C112.927 308.411 112.967 307.97 112.98 307.516H156.155C156.182 307.97 156.208 308.411 156.208 308.866Z" stroke="#263238" stroke-miterlimit="10" stroke-linecap="round" stroke-linejoin="round"/>
<path d="M146.829 333.13H122.306L121.172 336.419H147.963L146.829 333.13Z" fill="#757575" stroke="#263238" stroke-miterlimit="10" stroke-linecap="round" stroke-linejoin="round"/>
<path opacity="0.2" d="M147.963 336.419L146.829 333.13H122.306L121.172 336.419" fill="white"/>
<path d="M127.617 280.858C123.894 287.275 133.874 293.304 128.924 302.074" stroke="#263238" stroke-miterlimit="10" stroke-linecap="round" stroke-linejoin="round"/>
<path d="M134.021 280.858C130.298 287.275 140.278 293.304 135.328 302.074" stroke="#263238" stroke-miterlimit="10" stroke-linecap="round" stroke-linejoin="round"/>
<path d="M140.865 280.858C137.143 287.275 147.122 293.304 142.173 302.074" stroke="#263238" stroke-miterlimit="10" stroke-linecap="round" stroke-linejoin="round"/>
<path d="M391.321 374.985C381.835 358.783 342.596 344.666 299.021 342.928C298.901 342.928 298.794 342.914 298.674 342.914C297.247 342.861 295.819 342.821 294.378 342.794V342.754C293.658 342.754 292.924 342.767 292.203 342.781C291.483 342.767 290.749 342.754 290.029 342.754V342.794C288.601 342.821 287.16 342.861 285.732 342.914C285.612 342.914 285.492 342.928 285.359 342.928C241.784 344.679 202.558 358.783 193.072 374.985C182.946 392.297 167.936 420.157 167.936 420.157C176.341 433.793 208.629 435.625 208.629 435.625L210.35 472.321H281.436H302.957H374.043L375.764 435.625C375.764 435.625 408.052 433.807 416.457 420.157C416.457 420.157 401.461 392.297 391.321 374.985Z" fill="#2880B9" stroke="#263238" stroke-miterlimit="10" stroke-linecap="round" stroke-linejoin="round"/>
<path d="M244.092 459.087C244.092 459.087 168.643 471.773 163.213 461.413C162.666 460.37 162.306 459.127 162.119 457.723C160.344 445.224 171.165 420.572 171.165 420.572C179.557 419.77 188.362 421.949 195.407 424.529C195.42 424.543 195.42 424.543 195.42 424.529C203.612 427.55 209.43 431.147 209.483 431.307L208.923 432.537L208.736 432.925L226.361 433.486L242.131 433.994L242.491 434.007V434.034L244.092 459.087Z" fill="white"/>
<mask id="mask15_302_2137" style="mask-type:luminance" maskUnits="userSpaceOnUse" x="161" y="420" width="84" height="46">
<path d="M244.092 459.087C244.092 459.087 168.643 471.773 163.213 461.413C162.666 460.37 162.306 459.127 162.119 457.723C160.344 445.224 171.165 420.572 171.165 420.572C179.557 419.77 188.362 421.949 195.407 424.529C195.42 424.543 195.42 424.543 195.42 424.529C203.612 427.55 209.43 431.147 209.483 431.307L208.923 432.537L208.736 432.925L226.361 433.486L242.131 433.994L242.491 434.007V434.034L244.092 459.087Z" fill="white"/>
</mask>
<g mask="url(#mask15_302_2137)">
<path opacity="0.2" d="M208.922 432.537C191.658 432.871 185.107 435.251 185.107 435.251C185.107 435.251 189.47 428.366 195.407 424.529C195.42 424.543 195.42 424.543 195.42 424.529C203.612 427.551 209.429 431.147 209.483 431.307L208.922 432.537Z" fill="#2880B9"/>
<path opacity="0.2" d="M244.092 459.087C244.092 459.087 168.643 471.774 163.213 461.413C162.666 460.37 162.305 459.127 162.119 457.723C164.053 458.459 166.028 458.94 167.949 459.007C177.822 459.354 227.615 453.192 227.615 453.192L226.36 433.486L226.32 432.845C231.097 433.085 236.354 433.446 242.131 433.994C242.251 434.008 242.371 434.021 242.491 434.035L244.092 459.087Z" fill="#2880B9"/>
</g>
<path d="M244.092 459.087C244.092 459.087 168.643 471.773 163.213 461.413C162.666 460.37 162.306 459.127 162.119 457.723C160.344 445.224 171.165 420.572 171.165 420.572C179.557 419.77 188.362 421.949 195.407 424.529C195.42 424.543 195.42 424.543 195.42 424.529C203.612 427.55 209.43 431.147 209.483 431.307L208.923 432.537L208.736 432.925L226.361 433.486L242.131 433.994L242.491 434.007V434.034L244.092 459.087Z" stroke="#263238" stroke-miterlimit="10" stroke-linecap="round" stroke-linejoin="round"/>
<path d="M208.722 432.924C208.722 432.924 190.898 432.456 183.306 435.946" stroke="#263238" stroke-miterlimit="10" stroke-linecap="round" stroke-linejoin="round"/>
<path d="M369.107 427.857C369.107 427.857 362.116 395.492 375.671 379.824" stroke="#263238" stroke-miterlimit="10" stroke-linecap="round" stroke-linejoin="round"/>
<path d="M380.981 395.934C380.981 395.934 371.802 402.591 370.147 413.42" stroke="#263238" stroke-miterlimit="10" stroke-linecap="round" stroke-linejoin="round"/>
<path d="M208.722 376.041C208.722 376.041 221.09 400.225 213.952 429.635" stroke="#263238" stroke-miterlimit="10" stroke-linecap="round" stroke-linejoin="round"/>
<path d="M199.757 387.244C199.757 387.244 209.536 393.206 213.952 402.511" stroke="#263238" stroke-miterlimit="10" stroke-linecap="round" stroke-linejoin="round"/>
<path d="M322.036 346.751C322.036 346.751 307.573 383.741 264.532 363.689" stroke="#263238" stroke-miterlimit="10" stroke-linecap="round" stroke-linejoin="round"/>
<path d="M389.093 371.83C389.093 371.83 379.767 377.271 375.564 389.303" stroke="#263238" stroke-miterlimit="10" stroke-linecap="round" stroke-linejoin="round"/>
<path d="M195.314 371.83C195.314 371.83 202.679 375.72 206.855 385.078" stroke="#263238" stroke-miterlimit="10" stroke-linecap="round" stroke-linejoin="round"/>
<path d="M258.848 345.548C258.848 345.548 263.638 365.253 291.149 365.694" stroke="#263238" stroke-miterlimit="10" stroke-linecap="round" stroke-linejoin="round"/>
<path d="M348.453 365.694C348.453 365.694 297.313 415.759 261.063 417.577" stroke="#263238" stroke-miterlimit="10" stroke-linecap="round" stroke-linejoin="round"/>
<path d="M232.378 374.156C232.378 374.156 239.462 390.091 252.377 395.933" stroke="#263238" stroke-miterlimit="10" stroke-linecap="round" stroke-linejoin="round"/>
<path d="M340.702 459.087C340.702 459.087 416.151 471.773 421.581 461.413C422.128 460.37 422.488 459.127 422.675 457.723C424.45 445.224 413.629 420.572 413.629 420.572C405.237 419.77 396.431 421.949 389.387 424.529C389.374 424.543 389.374 424.543 389.374 424.529C381.182 427.55 375.364 431.147 375.311 431.307L375.871 432.537L376.058 432.925L358.433 433.486L342.663 433.994L342.303 434.007V434.034L340.702 459.087Z" fill="white"/>
<mask id="mask16_302_2137" style="mask-type:luminance" maskUnits="userSpaceOnUse" x="340" y="420" width="83" height="46">
<path d="M340.702 459.087C340.702 459.087 416.151 471.773 421.581 461.413C422.128 460.37 422.488 459.127 422.675 457.723C424.45 445.224 413.629 420.572 413.629 420.572C405.237 419.77 396.431 421.949 389.387 424.529C389.374 424.543 389.374 424.543 389.374 424.529C381.182 427.55 375.364 431.147 375.311 431.307L375.871 432.537L376.058 432.925L358.433 433.486L342.663 433.994L342.303 434.007V434.034L340.702 459.087Z" fill="white"/>
</mask>
<g mask="url(#mask16_302_2137)">
<path opacity="0.2" d="M375.871 432.537C393.136 432.871 399.687 435.251 399.687 435.251C399.687 435.251 395.324 428.366 389.387 424.529C389.374 424.543 389.374 424.543 389.374 424.529C381.182 427.551 375.364 431.147 375.311 431.307L375.871 432.537Z" fill="#2880B9"/>
<path opacity="0.2" d="M340.702 459.087C340.702 459.087 416.151 471.774 421.581 461.413C422.128 460.37 422.488 459.127 422.675 457.723C420.741 458.459 418.766 458.94 416.845 459.007C406.972 459.354 357.179 453.192 357.179 453.192L358.433 433.486L358.473 432.845C353.697 433.085 348.44 433.446 342.663 433.994C342.543 434.008 342.423 434.021 342.303 434.035L340.702 459.087Z" fill="#2880B9"/>
</g>
<path d="M340.702 459.087C340.702 459.087 416.151 471.773 421.581 461.413C422.128 460.37 422.488 459.127 422.675 457.723C424.45 445.224 413.629 420.572 413.629 420.572C405.237 419.77 396.431 421.949 389.387 424.529C389.374 424.543 389.374 424.543 389.374 424.529C381.182 427.55 375.364 431.147 375.311 431.307L375.871 432.537L376.058 432.925L358.433 433.486L342.663 433.994L342.303 434.007V434.034L340.702 459.087Z" stroke="#263238" stroke-miterlimit="10" stroke-linecap="round" stroke-linejoin="round"/>
<path d="M376.058 432.924C376.058 432.924 393.883 432.456 401.475 435.946" stroke="#263238" stroke-miterlimit="10" stroke-linecap="round" stroke-linejoin="round"/>
<path d="M317.767 346.831C317.767 346.831 309.615 361.563 290.656 360.641C275.139 359.866 264.532 348.075 264.532 348.075C270.109 343.543 270.936 332.581 270.549 325.388C270.536 325.228 270.536 325.067 270.523 324.907C270.496 324.439 270.456 323.971 270.416 323.517C269.989 318.316 269.002 314.399 269.002 314.399L315.445 316.726C313.444 322.287 312.563 326.939 312.39 330.776C312.283 333.182 312.443 335.268 312.75 337.072C312.763 337.153 312.777 337.206 312.79 337.273C314.071 344.198 317.767 346.831 317.767 346.831Z" fill="white" stroke="#263238" stroke-miterlimit="10"/>
<path d="M213.953 452.804V457.777C213.953 459.341 215.22 460.611 216.781 460.611H366.292C367.853 460.611 369.12 459.341 369.12 457.777V452.804H213.953Z" fill="#757575" stroke="#263238" stroke-miterlimit="10" stroke-linecap="round" stroke-linejoin="round"/>
<path d="M387.466 379.638L368.2 451.721C367.8 453.178 366.585 454.448 365.184 455.009C364.678 455.21 364.171 455.33 363.637 455.33H219.41C218.889 455.33 218.369 455.223 217.862 455.009C216.461 454.448 215.247 453.178 214.847 451.721L195.581 379.638C195.047 377.646 196.221 376.042 198.209 376.042H384.837C386.825 376.042 388.013 377.66 387.466 379.638Z" fill="#BFBFBF" stroke="#263238" stroke-miterlimit="10"/>
<path d="M384.33 383.421L365.185 455.01C364.678 455.21 364.171 455.33 363.637 455.33H219.41C218.889 455.33 218.369 455.223 217.862 455.01L198.716 383.421C198.183 381.429 199.357 379.825 201.345 379.825H381.689C383.69 379.812 384.877 381.429 384.33 383.421Z" fill="#999999" stroke="#263238" stroke-miterlimit="10" stroke-linecap="round" stroke-linejoin="round"/>
<path d="M301.303 423.701C297.034 423.701 293.578 421.134 293.578 417.979C293.578 417.244 293.765 416.562 294.112 415.92C293.284 415.773 292.431 415.68 291.55 415.68C285.573 415.68 280.716 419.276 280.716 423.701C280.716 428.126 285.559 431.722 291.55 431.722C297.527 431.722 302.384 428.126 302.384 423.701C302.384 423.674 302.384 423.661 302.384 423.647C302.01 423.674 301.663 423.701 301.303 423.701Z" fill="#BFBFBF" stroke="#263238" stroke-miterlimit="10"/>
<path d="M315.445 316.725C313.444 322.287 312.564 326.939 312.39 330.775C307.347 335.829 301.17 339.599 294.352 338.529C284.492 336.965 276.287 329.666 270.416 323.503C269.989 318.303 269.002 314.386 269.002 314.386L315.445 316.725Z" fill="#263238"/>
<path d="M324.905 282.85C324.905 282.85 328.654 278.772 330.482 280.109C332.323 281.446 334.498 285.243 333.497 288.705C332.497 292.167 328.147 298.21 327.813 301.726C327.48 305.242 325.225 309.226 322.757 306.899C320.289 304.587 324.905 282.85 324.905 282.85Z" fill="white" stroke="#263238" stroke-miterlimit="10"/>
<path d="M258.155 282.85C258.155 282.85 254.406 278.772 252.565 280.109C250.723 281.446 248.549 285.243 249.549 288.705C250.55 292.167 254.899 298.21 255.233 301.726C255.567 305.242 257.821 309.226 260.29 306.899C262.771 304.587 258.155 282.85 258.155 282.85Z" fill="white" stroke="#263238" stroke-miterlimit="10"/>
<path d="M290.736 235.712C337.833 235.712 326.639 298.57 317.967 318.743C314.925 325.829 299.155 335.133 291.523 335.133C284.425 335.133 268.201 324.024 265.319 317.366C256.554 297.087 245.84 235.712 290.736 235.712Z" fill="white" stroke="#263238" stroke-miterlimit="10"/>
<path d="M310.242 251.795C310.242 251.795 293.351 258.158 273.952 251.795C273.952 251.795 267.601 251.42 265.079 254.629C262.571 257.837 265.079 267.716 265.747 271.74C266.414 275.764 260.223 278.558 261.064 288.718L258.675 292.221C258.675 292.221 252.031 275.858 253.699 261.781C255.367 247.704 264.239 242.236 264.239 242.236C264.239 242.236 268.282 230.084 291.977 230.164C317.527 230.258 320.102 244.121 320.102 244.121C320.102 244.121 337.42 255.698 324.612 293.411L321.836 288.718C321.836 288.718 323.184 281.125 318.608 274.414C316.38 271.152 319.942 261.34 319.115 256.313C318.261 251.287 310.242 251.795 310.242 251.795Z" fill="#263238"/>
<path d="M324.345 258.666C324.345 258.666 317.433 268.077 301.743 274.588V270.109C301.743 270.109 287.561 278.304 274.779 277.061L277.674 271.232C277.674 271.232 266.907 282.662 257.795 282.221C248.682 281.78 246.04 230.178 292.003 230.178C329.334 230.164 324.345 258.666 324.345 258.666Z" fill="#263238"/>
<path d="M316.593 261.794C316.593 261.794 314.138 275.443 326.986 285.429C326.986 285.429 334.605 277.234 331.669 261.794C328.734 246.353 322.036 245.872 322.036 245.872L316.593 261.794Z" fill="#263238"/>
<path opacity="0.2" d="M310.882 240.472C310.882 240.472 306.093 260.859 288.481 271.219" stroke="white" stroke-miterlimit="10"/>
<path opacity="0.2" d="M299.675 240.472C299.675 240.472 291.87 260.524 262.851 263.866" stroke="white" stroke-miterlimit="10"/>
<path opacity="0.2" d="M317.767 247.972C317.767 247.972 317.887 258.519 310.883 263.867" stroke="white" stroke-miterlimit="10"/>
<path d="M486.196 90.4244L499.445 64.6768" stroke="#263238" stroke-miterlimit="10" stroke-linecap="round" stroke-linejoin="round"/>
<path d="M499.445 104.394L529.238 86.4668" stroke="#263238" stroke-miterlimit="10" stroke-linecap="round" stroke-linejoin="round"/>
<path d="M511.76 125.89L537.63 124.246" stroke="#263238" stroke-miterlimit="10" stroke-linecap="round" stroke-linejoin="round"/>
<path d="M87.4038 481.331H66.7637V463.565C66.7637 461.934 68.0845 460.61 69.7123 460.61H513.347C514.975 460.61 516.296 461.934 516.296 463.565V481.331" fill="white"/>
<path d="M87.4038 481.331H66.7637V463.565C66.7637 461.934 68.0845 460.61 69.7123 460.61H513.347C514.975 460.61 516.296 461.934 516.296 463.565V481.331" stroke="#263238" stroke-miterlimit="10"/>
<path d="M492.334 481.331H307.801" stroke="#263238" stroke-miterlimit="10"/>
<path d="M294.592 481.331H281.33" stroke="#263238" stroke-miterlimit="10"/>
<path d="M195.46 481.331H98.0771" stroke="#263238" stroke-miterlimit="10"/>
</g>
<path d="M115.17 543.04H105.442L103.65 548H100.578L108.642 525.824H112.002L120.034 548H116.962L115.17 543.04ZM114.338 540.672L110.306 529.408L106.274 540.672H114.338ZM127.1 524.32V548H124.188V524.32H127.1ZM135.615 524.32V548H132.703V524.32H135.615ZM173.014 525.856V548H170.102V531.488L162.742 548H160.694L153.302 531.456V548H150.39V525.856H153.526L161.718 544.16L169.91 525.856H173.014ZM177.504 539.168C177.504 537.376 177.867 535.808 178.592 534.464C179.317 533.099 180.309 532.043 181.568 531.296C182.848 530.549 184.267 530.176 185.824 530.176C187.36 530.176 188.693 530.507 189.824 531.168C190.955 531.829 191.797 532.661 192.352 533.664V530.464H195.296V548H192.352V544.736C191.776 545.76 190.912 546.613 189.76 547.296C188.629 547.957 187.307 548.288 185.792 548.288C184.235 548.288 182.827 547.904 181.568 547.136C180.309 546.368 179.317 545.291 178.592 543.904C177.867 542.517 177.504 540.939 177.504 539.168ZM192.352 539.2C192.352 537.877 192.085 536.725 191.552 535.744C191.019 534.763 190.293 534.016 189.376 533.504C188.48 532.971 187.488 532.704 186.4 532.704C185.312 532.704 184.32 532.96 183.424 533.472C182.528 533.984 181.813 534.731 181.28 535.712C180.747 536.693 180.48 537.845 180.48 539.168C180.48 540.512 180.747 541.685 181.28 542.688C181.813 543.669 182.528 544.427 183.424 544.96C184.32 545.472 185.312 545.728 186.4 545.728C187.488 545.728 188.48 545.472 189.376 544.96C190.293 544.427 191.019 543.669 191.552 542.688C192.085 541.685 192.352 540.523 192.352 539.2ZM209.401 530.144C211.534 530.144 213.262 530.795 214.585 532.096C215.908 533.376 216.569 535.232 216.569 537.664V548H213.689V538.08C213.689 536.331 213.252 534.997 212.377 534.08C211.502 533.141 210.308 532.672 208.793 532.672C207.257 532.672 206.03 533.152 205.113 534.112C204.217 535.072 203.769 536.469 203.769 538.304V548H200.857V530.464H203.769V532.96C204.345 532.064 205.124 531.371 206.105 530.88C207.108 530.389 208.206 530.144 209.401 530.144ZM220.878 539.168C220.878 537.376 221.241 535.808 221.966 534.464C222.691 533.099 223.683 532.043 224.942 531.296C226.222 530.549 227.641 530.176 229.198 530.176C230.734 530.176 232.067 530.507 233.198 531.168C234.329 531.829 235.171 532.661 235.726 533.664V530.464H238.67V548H235.726V544.736C235.15 545.76 234.286 546.613 233.134 547.296C232.003 547.957 230.681 548.288 229.166 548.288C227.609 548.288 226.201 547.904 224.942 547.136C223.683 546.368 222.691 545.291 221.966 543.904C221.241 542.517 220.878 540.939 220.878 539.168ZM235.726 539.2C235.726 537.877 235.459 536.725 234.926 535.744C234.393 534.763 233.667 534.016 232.75 533.504C231.854 532.971 230.862 532.704 229.774 532.704C228.686 532.704 227.694 532.96 226.798 533.472C225.902 533.984 225.187 534.731 224.654 535.712C224.121 536.693 223.854 537.845 223.854 539.168C223.854 540.512 224.121 541.685 224.654 542.688C225.187 543.669 225.902 544.427 226.798 544.96C227.694 545.472 228.686 545.728 229.774 545.728C230.862 545.728 231.854 545.472 232.75 544.96C233.667 544.427 234.393 543.669 234.926 542.688C235.459 541.685 235.726 540.523 235.726 539.2ZM251.463 530.176C252.978 530.176 254.3 530.507 255.431 531.168C256.583 531.829 257.436 532.661 257.991 533.664V530.464H260.935V548.384C260.935 549.984 260.594 551.403 259.911 552.64C259.228 553.899 258.247 554.88 256.967 555.584C255.708 556.288 254.236 556.64 252.551 556.64C250.247 556.64 248.327 556.096 246.791 555.008C245.255 553.92 244.348 552.437 244.071 550.56H246.951C247.271 551.627 247.932 552.48 248.935 553.12C249.938 553.781 251.143 554.112 252.551 554.112C254.151 554.112 255.452 553.611 256.455 552.608C257.479 551.605 257.991 550.197 257.991 548.384V544.704C257.415 545.728 256.562 546.581 255.431 547.264C254.3 547.947 252.978 548.288 251.463 548.288C249.906 548.288 248.487 547.904 247.207 547.136C245.948 546.368 244.956 545.291 244.231 543.904C243.506 542.517 243.143 540.939 243.143 539.168C243.143 537.376 243.506 535.808 244.231 534.464C244.956 533.099 245.948 532.043 247.207 531.296C248.487 530.549 249.906 530.176 251.463 530.176ZM257.991 539.2C257.991 537.877 257.724 536.725 257.191 535.744C256.658 534.763 255.932 534.016 255.015 533.504C254.119 532.971 253.127 532.704 252.039 532.704C250.951 532.704 249.959 532.96 249.063 533.472C248.167 533.984 247.452 534.731 246.919 535.712C246.386 536.693 246.119 537.845 246.119 539.168C246.119 540.512 246.386 541.685 246.919 542.688C247.452 543.669 248.167 544.427 249.063 544.96C249.959 545.472 250.951 545.728 252.039 545.728C253.127 545.728 254.119 545.472 255.015 544.96C255.932 544.427 256.658 543.669 257.191 542.688C257.724 541.685 257.991 540.523 257.991 539.2ZM282.496 538.56C282.496 539.115 282.464 539.701 282.4 540.32H268.384C268.491 542.048 269.077 543.403 270.144 544.384C271.232 545.344 272.544 545.824 274.08 545.824C275.339 545.824 276.384 545.536 277.216 544.96C278.069 544.363 278.667 543.573 279.008 542.592H282.144C281.675 544.277 280.736 545.653 279.328 546.72C277.92 547.765 276.171 548.288 274.08 548.288C272.416 548.288 270.923 547.915 269.6 547.168C268.299 546.421 267.275 545.365 266.528 544C265.781 542.613 265.408 541.013 265.408 539.2C265.408 537.387 265.771 535.797 266.496 534.432C267.221 533.067 268.235 532.021 269.536 531.296C270.859 530.549 272.373 530.176 274.08 530.176C275.744 530.176 277.216 530.539 278.496 531.264C279.776 531.989 280.757 532.992 281.44 534.272C282.144 535.531 282.496 536.96 282.496 538.56ZM279.488 537.952C279.488 536.843 279.243 535.893 278.752 535.104C278.261 534.293 277.589 533.685 276.736 533.28C275.904 532.853 274.976 532.64 273.952 532.64C272.48 532.64 271.221 533.109 270.176 534.048C269.152 534.987 268.565 536.288 268.416 537.952H279.488ZM308.068 530.144C309.433 530.144 310.649 530.432 311.716 531.008C312.782 531.563 313.625 532.405 314.244 533.536C314.862 534.667 315.172 536.043 315.172 537.664V548H312.292V538.08C312.292 536.331 311.854 534.997 310.98 534.08C310.126 533.141 308.964 532.672 307.492 532.672C305.977 532.672 304.772 533.163 303.876 534.144C302.98 535.104 302.532 536.501 302.532 538.336V548H299.652V538.08C299.652 536.331 299.214 534.997 298.34 534.08C297.486 533.141 296.324 532.672 294.852 532.672C293.337 532.672 292.132 533.163 291.236 534.144C290.34 535.104 289.892 536.501 289.892 538.336V548H286.98V530.464H289.892V532.992C290.468 532.075 291.236 531.371 292.196 530.88C293.177 530.389 294.254 530.144 295.428 530.144C296.9 530.144 298.201 530.475 299.332 531.136C300.462 531.797 301.305 532.768 301.86 534.048C302.35 532.811 303.161 531.851 304.292 531.168C305.422 530.485 306.681 530.144 308.068 530.144ZM336.588 538.56C336.588 539.115 336.556 539.701 336.492 540.32H322.476C322.583 542.048 323.17 543.403 324.236 544.384C325.324 545.344 326.636 545.824 328.172 545.824C329.431 545.824 330.476 545.536 331.308 544.96C332.162 544.363 332.759 543.573 333.1 542.592H336.236C335.767 544.277 334.828 545.653 333.42 546.72C332.012 547.765 330.263 548.288 328.172 548.288C326.508 548.288 325.015 547.915 323.692 547.168C322.391 546.421 321.367 545.365 320.62 544C319.874 542.613 319.5 541.013 319.5 539.2C319.5 537.387 319.863 535.797 320.588 534.432C321.314 533.067 322.327 532.021 323.628 531.296C324.951 530.549 326.466 530.176 328.172 530.176C329.836 530.176 331.308 530.539 332.588 531.264C333.868 531.989 334.85 532.992 335.532 534.272C336.236 535.531 336.588 536.96 336.588 538.56ZM333.58 537.952C333.58 536.843 333.335 535.893 332.844 535.104C332.354 534.293 331.682 533.685 330.828 533.28C329.996 532.853 329.068 532.64 328.044 532.64C326.572 532.64 325.314 533.109 324.268 534.048C323.244 534.987 322.658 536.288 322.508 537.952H333.58ZM349.616 530.144C351.749 530.144 353.477 530.795 354.8 532.096C356.123 533.376 356.784 535.232 356.784 537.664V548H353.904V538.08C353.904 536.331 353.467 534.997 352.592 534.08C351.717 533.141 350.523 532.672 349.008 532.672C347.472 532.672 346.245 533.152 345.328 534.112C344.432 535.072 343.984 536.469 343.984 538.304V548H341.072V530.464H343.984V532.96C344.56 532.064 345.339 531.371 346.32 530.88C347.323 530.389 348.421 530.144 349.616 530.144ZM365.733 532.864V543.2C365.733 544.053 365.914 544.661 366.277 545.024C366.64 545.365 367.269 545.536 368.165 545.536H370.309V548H367.685C366.064 548 364.848 547.627 364.037 546.88C363.226 546.133 362.821 544.907 362.821 543.2V532.864H360.549V530.464H362.821V526.048H365.733V530.464H370.309V532.864H365.733ZM386.56 524.32V548H383.648V524.32H386.56ZM408.163 538.56C408.163 539.115 408.131 539.701 408.067 540.32H394.051C394.158 542.048 394.745 543.403 395.811 544.384C396.899 545.344 398.211 545.824 399.747 545.824C401.006 545.824 402.051 545.536 402.883 544.96C403.737 544.363 404.334 543.573 404.675 542.592H407.811C407.342 544.277 406.403 545.653 404.995 546.72C403.587 547.765 401.838 548.288 399.747 548.288C398.083 548.288 396.59 547.915 395.267 547.168C393.966 546.421 392.942 545.365 392.195 544C391.449 542.613 391.075 541.013 391.075 539.2C391.075 537.387 391.438 535.797 392.163 534.432C392.889 533.067 393.902 532.021 395.203 531.296C396.526 530.549 398.041 530.176 399.747 530.176C401.411 530.176 402.883 530.539 404.163 531.264C405.443 531.989 406.425 532.992 407.107 534.272C407.811 535.531 408.163 536.96 408.163 538.56ZM405.155 537.952C405.155 536.843 404.91 535.893 404.419 535.104C403.929 534.293 403.257 533.685 402.403 533.28C401.571 532.853 400.643 532.64 399.619 532.64C398.147 532.64 396.889 533.109 395.843 534.048C394.819 534.987 394.233 536.288 394.083 537.952H405.155ZM419.175 545.312L424.615 530.464H427.719L420.839 548H417.447L410.567 530.464H413.703L419.175 545.312ZM447.225 538.56C447.225 539.115 447.193 539.701 447.129 540.32H433.113C433.219 542.048 433.806 543.403 434.873 544.384C435.961 545.344 437.273 545.824 438.809 545.824C440.067 545.824 441.113 545.536 441.945 544.96C442.798 544.363 443.395 543.573 443.737 542.592H446.873C446.403 544.277 445.465 545.653 444.057 546.72C442.649 547.765 440.899 548.288 438.809 548.288C437.145 548.288 435.651 547.915 434.329 547.168C433.027 546.421 432.003 545.365 431.257 544C430.51 542.613 430.137 541.013 430.137 539.2C430.137 537.387 430.499 535.797 431.225 534.432C431.95 533.067 432.963 532.021 434.265 531.296C435.587 530.549 437.102 530.176 438.809 530.176C440.473 530.176 441.945 530.539 443.225 531.264C444.505 531.989 445.486 532.992 446.169 534.272C446.873 535.531 447.225 536.96 447.225 538.56ZM444.217 537.952C444.217 536.843 443.971 535.893 443.481 535.104C442.99 534.293 442.318 533.685 441.465 533.28C440.633 532.853 439.705 532.64 438.681 532.64C437.209 532.64 435.95 533.109 434.905 534.048C433.881 534.987 433.294 536.288 433.145 537.952H444.217ZM454.62 524.32V548H451.708V524.32H454.62ZM466.431 548.288C465.087 548.288 463.882 548.064 462.815 547.616C461.749 547.147 460.906 546.507 460.287 545.696C459.669 544.864 459.327 543.915 459.263 542.848H462.271C462.357 543.723 462.762 544.437 463.487 544.992C464.234 545.547 465.205 545.824 466.399 545.824C467.509 545.824 468.383 545.579 469.023 545.088C469.663 544.597 469.983 543.979 469.983 543.232C469.983 542.464 469.642 541.899 468.959 541.536C468.277 541.152 467.221 540.779 465.791 540.416C464.49 540.075 463.423 539.733 462.591 539.392C461.781 539.029 461.077 538.507 460.479 537.824C459.903 537.12 459.615 536.203 459.615 535.072C459.615 534.176 459.882 533.355 460.415 532.608C460.949 531.861 461.706 531.275 462.687 530.848C463.669 530.4 464.789 530.176 466.047 530.176C467.989 530.176 469.557 530.667 470.751 531.648C471.946 532.629 472.586 533.973 472.671 535.68H469.759C469.695 534.763 469.322 534.027 468.639 533.472C467.978 532.917 467.082 532.64 465.951 532.64C464.906 532.64 464.074 532.864 463.455 533.312C462.837 533.76 462.527 534.347 462.527 535.072C462.527 535.648 462.709 536.128 463.071 536.512C463.455 536.875 463.925 537.173 464.479 537.408C465.055 537.621 465.845 537.867 466.847 538.144C468.106 538.485 469.13 538.827 469.919 539.168C470.709 539.488 471.381 539.979 471.935 540.64C472.511 541.301 472.81 542.165 472.831 543.232C472.831 544.192 472.565 545.056 472.031 545.824C471.498 546.592 470.741 547.2 469.759 547.648C468.799 548.075 467.69 548.288 466.431 548.288Z" fill="#2880B9"/>
<rect x="247.5" y="594.138" width="47" height="8" rx="4" fill="#2880B9"/>
<circle cx="306.5" cy="598.138" r="4" fill="#BED9EA"/>
<circle cx="322.5" cy="598.138" r="4" fill="#BED9EA"/>
<defs>
<clipPath id="clip0_302_2137">
<rect width="574" height="482" fill="white"/>
</clipPath>
</defs>
</svg>
