<svg width="50" height="50" viewBox="0 0 50 50" fill="none" xmlns="http://www.w3.org/2000/svg">
<path opacity="0.1" d="M33.8461 19.6157C33.9423 19.6157 34.0384 19.5195 34.1346 19.5195C34.5192 19.9041 34.9038 20.2888 35.2884 20.6734C36.3461 21.7311 37.2115 22.9811 37.9807 24.3272C37.4999 25.2888 36.5384 25.8657 35.3846 25.9618C31.4423 26.2503 30.3846 20.9618 33.8461 19.6157ZM28.173 47.4041V47.5003C27.7884 47.5965 27.4038 47.6926 27.0192 47.7888C24.8076 48.2695 22.4038 48.2695 19.9999 47.7888C19.5192 46.8272 19.423 45.6734 19.8076 44.5195C20.0961 43.558 20.673 42.8849 21.4423 42.308C24.8076 39.7118 29.6153 43.3657 28.173 47.4041Z" fill="#F9F9FA"/>
<path opacity="0.1" d="M27.5962 35.3843C29.2955 35.3843 30.6731 34.0067 30.6731 32.3074C30.6731 30.6081 29.2955 29.2305 27.5962 29.2305C25.8969 29.2305 24.5193 30.6081 24.5193 32.3074C24.5193 34.0067 25.8969 35.3843 27.5962 35.3843Z" fill="#F9F9FA"/>
<path opacity="0.1" d="M20.9614 20.0962C19.9038 19.7116 18.6538 20.2885 18.2691 21.4424C17.4038 24.0385 21.3461 25.3847 22.2114 22.7885C22.6922 21.7308 22.1153 20.4808 20.9614 20.0962ZM39.0384 34.5193C39.0384 34.5193 39.1345 34.5193 39.1345 34.6154C39.2307 34.6154 39.423 34.7116 39.5191 34.8077C39.423 35.577 39.1345 36.4424 38.9422 37.2116C38.6538 37.9808 38.3653 38.6539 38.0768 39.327C38.0768 39.4231 37.9807 39.4231 37.9807 39.5193C37.7884 39.5193 37.5961 39.4231 37.4999 39.4231C35.8653 38.8462 35.4807 36.9231 35.9614 35.9616C36.0576 35.7693 36.1538 35.6731 36.2499 35.4808C36.8268 34.6154 37.9807 34.2308 39.0384 34.5193ZM10.673 21.9231C12.3076 22.5 13.173 24.2308 12.5961 25.8654C12.4038 26.4424 12.0191 26.9231 11.6345 27.3077C10.4807 28.2693 8.94221 28.1731 7.88452 27.4039C7.98068 27.1154 8.07683 26.9231 8.07683 26.6347C8.17298 26.4424 8.26914 26.1539 8.26914 25.9616C8.94221 24.5193 9.71145 23.1731 10.673 21.9231ZM10.7691 41.9231C9.8076 40.7693 9.03837 39.4231 8.5576 38.077C9.23068 36.9231 10.3845 36.4424 11.5384 36.7308C14.7114 37.5 13.9422 42.1154 10.7691 41.9231Z" fill="#F9F9FA"/>
<path opacity="0.1" d="M11.7307 36.7312C13.6537 37.4043 14.1345 39.9043 12.596 41.2504C14.0383 38.7504 10.7691 36.0581 8.46143 37.9812C9.03835 36.9235 10.4807 36.3466 11.7307 36.7312ZM27.0191 47.7889C27.9807 44.3273 24.7114 41.3466 21.4422 42.3081C24.6153 39.8081 29.6153 43.1735 28.173 47.4043V47.5004V47.5966C28.0768 47.5966 27.9807 47.6927 27.8845 47.6927C27.8845 47.6927 27.8845 47.6927 27.7883 47.6927C27.596 47.7889 27.4037 47.7889 27.2114 47.7889C27.1153 47.7889 27.1153 47.7889 27.0191 47.7889ZM28.5576 29.4235C30.1922 30.0004 30.9614 31.7312 30.4807 33.2696C30.096 34.3273 29.2307 35.0966 28.173 35.2889C28.5576 34.9043 28.846 34.5196 29.0383 34.0389C29.6153 32.4043 28.7499 30.7696 27.1153 30.1927C26.6345 30.0004 26.0576 30.0004 25.5768 30.0966C26.346 29.3273 27.4999 29.0389 28.5576 29.4235ZM20.9614 20.0966C22.7883 20.7696 22.8845 23.3658 20.9614 24.0389C21.923 22.885 21.4422 21.1543 20.096 20.6735C19.6153 20.4812 19.1345 20.4812 18.7499 20.6735C19.3268 20.0966 20.1922 19.8081 20.9614 20.0966Z" fill="#F9F9FA"/>
<path opacity="0.1" d="M16.9231 33.5575C17.6665 33.5575 18.2692 32.9549 18.2692 32.2114C18.2692 31.4679 17.6665 30.8652 16.9231 30.8652C16.1796 30.8652 15.5769 31.4679 15.5769 32.2114C15.5769 32.9549 16.1796 33.5575 16.9231 33.5575Z" fill="#F9F9FA"/>
<path opacity="0.1" d="M17.4038 30.9618C18.0768 31.2503 18.4614 31.9234 18.2691 32.6926C18.173 33.0772 17.7884 33.3657 17.4999 33.558C17.5961 33.4618 17.6922 33.2695 17.7884 33.0772C18.0768 32.4041 17.6922 31.6349 16.923 31.3465C16.6345 31.2503 16.3461 31.2503 16.0576 31.3465C16.2499 30.8657 16.8268 30.7695 17.4038 30.9618ZM34.0384 19.5195C34.423 19.9041 34.8076 20.2888 35.1922 20.6734H35.0961C33.2691 20.7695 31.923 22.308 32.0191 24.1349C31.1537 22.5003 32.0191 20.2888 33.7499 19.6157C33.8461 19.6157 33.9422 19.6157 34.0384 19.5195ZM39.0384 34.5195C39.0384 34.5195 39.1345 34.5195 39.1345 34.6157C38.173 34.7118 37.3076 35.2888 36.923 36.3465C36.5384 37.5003 37.0191 38.6541 37.9807 39.3272C37.9807 39.4234 37.8845 39.4234 37.8845 39.5195C37.6922 39.5195 37.4999 39.4234 37.4038 39.4234C35.7691 38.8465 35.3845 36.9234 35.8653 35.9618C35.9614 35.7695 36.0576 35.6734 36.1537 35.4811C36.8268 34.6157 37.9807 34.2311 39.0384 34.5195ZM11.6345 27.308C11.4422 27.4041 9.71144 28.7503 7.88452 27.4041C7.98068 27.1157 8.07683 26.9234 8.07683 26.6349C8.17298 26.4426 8.26914 26.1541 8.26914 25.9618C9.13452 27.0195 10.3845 27.5965 11.6345 27.308Z" fill="#F9F9FA"/>
<g opacity="0.3">
<path d="M35.9617 21.5384C34.5193 20.2884 32.7886 19.3269 30.8655 18.6538C15.3847 13.2692 2.69242 31.8269 13.077 44.423C8.07704 40.1922 5.8655 33.2692 8.07704 26.6345C10.9617 18.173 20.2886 13.6538 28.7501 16.5384C31.7309 17.4999 34.1347 19.3269 35.9617 21.5384Z" fill="#F9F9FA"/>
</g>
<path opacity="0.1" d="M42.2114 13.3656C42.596 14.1348 42.1153 15.0964 41.1537 15.0964H40.1922C40.5768 14.8079 40.673 14.231 40.3845 13.7502L39.2307 11.5387C39.0383 11.2502 39.0383 10.8656 39.2307 10.481L40.4807 8.1733C40.8653 7.50023 40.3845 6.63484 39.5191 6.63484H30.9614V5.57715H41.2499C42.1153 5.57715 42.6922 6.53869 42.3076 7.30792L40.9614 9.80792C40.7691 10.1925 40.7691 10.5771 40.9614 10.9618L42.2114 13.3656Z" fill="#F9F9FA"/>
<path opacity="0.1" d="M35.7691 4.61487V11.4418C35.7691 12.0187 35.2884 12.4995 34.7114 12.4995H34.5191V6.05717C34.5191 5.48025 34.0384 4.99948 33.4614 4.99948H27.8845V3.55717H34.7114C35.2884 3.46102 35.7691 3.94179 35.7691 4.61487Z" fill="#F9F9FA"/>
<path d="M42.0192 10.3845C42.0192 10.2883 42.0192 10.2883 42.0192 10.1922L43.3654 7.69216C43.75 7.01908 43.75 6.24985 43.3654 5.57677C42.9808 4.9037 42.3077 4.51908 41.5385 4.51908H36.9231C36.9231 3.36523 35.9615 2.49985 34.9038 2.49985H28.4615V2.01908C28.4615 1.346 27.9808 0.865234 27.3077 0.865234C26.7308 0.865234 26.1538 1.44216 26.1538 2.01908V14.9037C25.2885 14.8075 24.3269 14.7114 23.4615 14.7114C13.9423 14.7114 6.25 22.4037 6.25 31.9229C6.25 41.4422 13.9423 49.1345 23.4615 49.1345C32.9808 49.1345 40.6731 41.4422 40.6731 31.9229C40.6731 24.1345 35.4808 17.596 28.4615 15.4806V13.4614H30.2885V14.0383C30.2885 14.8075 30.6731 15.5768 31.3462 15.8652C31.6346 16.0575 32.0192 16.1537 32.4038 16.1537H41.5385C42.3077 16.1537 42.9808 15.7691 43.3654 15.096C43.75 14.4229 43.75 13.6537 43.3654 12.9806L42.0192 10.3845ZM32.3077 13.4614H34.9038C36.0577 13.4614 36.9231 12.4998 36.9231 11.4422V6.63447H41.5385C41.6346 6.63447 41.7308 6.63446 41.7308 6.73062C41.7308 6.82677 41.7308 6.82677 41.7308 6.92293L40.3846 9.32677C40 9.99985 40 10.7691 40.3846 11.4422L41.7308 13.9422C41.7308 14.0383 41.7308 14.0383 41.7308 14.1345C41.7308 14.1345 41.6346 14.2306 41.5385 14.2306H32.4038H32.3077C32.3077 14.2306 32.2115 14.1345 32.2115 14.0383V13.4614H32.3077ZM29.0385 4.42293H34.9038C35 4.42293 35 4.51908 35 4.51908C35 6.1537 35 9.61523 35 11.2498C35 11.346 34.9038 11.346 34.9038 11.346C32.6923 11.346 31.1538 11.346 29.0385 11.346V4.42293ZM23.5577 47.2114C15.0962 47.2114 8.26923 40.3845 8.26923 31.9229C8.26923 23.4614 15.0962 16.6345 23.5577 16.6345C24.5192 16.6345 25.3846 16.7306 26.25 16.8268V23.0768C26.25 23.3652 26.5385 23.6537 26.8269 23.6537H27.8846C28.1731 23.6537 28.4615 23.3652 28.4615 23.0768V17.4999C34.4231 19.5191 38.75 25.2883 38.75 31.9229C38.8462 40.3845 31.9231 47.2114 23.5577 47.2114Z" fill="#F9F9FA"/>
</svg>
