<svg width="50" height="51" viewBox="0 0 50 51" fill="none" xmlns="http://www.w3.org/2000/svg">
<g clip-path="url(#clip0_327_1626)">
<path d="M44.1406 14.9512C44.7587 14.9512 45.3629 14.7679 45.8768 14.4245C46.3907 14.0811 46.7912 13.5931 47.0277 13.0221C47.2643 12.451 47.3262 11.8227 47.2056 11.2165C47.085 10.6103 46.7874 10.0535 46.3503 9.61646C45.9133 9.17943 45.3565 8.8818 44.7503 8.76122C44.1441 8.64064 43.5158 8.70253 42.9447 8.93905C42.3737 9.17557 41.8857 9.57611 41.5423 10.09C41.1989 10.6039 41.0156 11.2081 41.0156 11.8262C41.0167 12.6547 41.3462 13.4489 41.9321 14.0347C42.5179 14.6206 43.3121 14.9501 44.1406 14.9512ZM44.1406 10.2637C44.4497 10.2637 44.7518 10.3553 45.0087 10.527C45.2657 10.6987 45.4659 10.9427 45.5842 11.2282C45.7024 11.5137 45.7334 11.8279 45.6731 12.131C45.6128 12.4341 45.464 12.7125 45.2455 12.931C45.027 13.1495 44.7486 13.2984 44.4455 13.3587C44.1424 13.4189 43.8282 13.388 43.5427 13.2697C43.2572 13.1515 43.0131 12.9512 42.8415 12.6943C42.6698 12.4373 42.5781 12.1352 42.5781 11.8262C42.5785 11.4119 42.7433 11.0147 43.0362 10.7218C43.3292 10.4288 43.7264 10.2641 44.1406 10.2637Z" fill="#F9F9FA"/>
<path d="M46.875 7.91992C47.3065 7.91992 47.6562 7.57014 47.6562 7.13867C47.6562 6.7072 47.3065 6.35742 46.875 6.35742C46.4435 6.35742 46.0938 6.7072 46.0938 7.13867C46.0938 7.57014 46.4435 7.91992 46.875 7.91992Z" fill="#F9F9FA"/>
<path d="M2.73438 11.8262C2.73438 12.4442 2.91765 13.0484 3.26103 13.5623C3.60441 14.0762 4.09247 14.4768 4.66349 14.7133C5.23451 14.9498 5.86284 15.0117 6.46903 14.8911C7.07522 14.7705 7.63204 14.4729 8.06908 14.0359C8.50612 13.5988 8.80375 13.042 8.92433 12.4358C9.04491 11.8296 8.98302 11.2013 8.7465 10.6303C8.50997 10.0593 8.10944 9.57121 7.59553 9.22783C7.08163 8.88445 6.47744 8.70117 5.85938 8.70117C5.03089 8.70221 4.23664 9.03178 3.65081 9.61761C3.06498 10.2034 2.73541 10.9977 2.73438 11.8262ZM5.85938 10.2637C6.16841 10.2637 6.4705 10.3553 6.72745 10.527C6.98441 10.6987 7.18468 10.9427 7.30294 11.2282C7.4212 11.5137 7.45214 11.8279 7.39185 12.131C7.33156 12.4341 7.18275 12.7125 6.96423 12.931C6.74571 13.1495 6.4673 13.2984 6.1642 13.3586C5.86111 13.4189 5.54694 13.388 5.26143 13.2697C4.97592 13.1515 4.73189 12.9512 4.5602 12.6943C4.38851 12.4373 4.29688 12.1352 4.29688 11.8262C4.29729 11.4119 4.46204 11.0147 4.75498 10.7218C5.04791 10.4288 5.4451 10.2641 5.85938 10.2637Z" fill="#F9F9FA"/>
<path d="M3.125 7.91992C3.55647 7.91992 3.90625 7.57014 3.90625 7.13867C3.90625 6.7072 3.55647 6.35742 3.125 6.35742C2.69353 6.35742 2.34375 6.7072 2.34375 7.13867C2.34375 7.57014 2.69353 7.91992 3.125 7.91992Z" fill="#F9F9FA"/>
<path d="M47.2656 39.1699C47.2656 38.5519 47.0823 37.9477 46.739 37.4338C46.3956 36.9199 45.9075 36.5193 45.3365 36.2828C44.7655 36.0463 44.1372 35.9844 43.531 36.105C42.9248 36.2255 42.368 36.5232 41.9309 36.9602C41.4939 37.3973 41.1963 37.9541 41.0757 38.5603C40.9551 39.1665 41.017 39.7948 41.2535 40.3658C41.49 40.9368 41.8906 41.4249 42.4045 41.7683C42.9184 42.1116 43.5226 42.2949 44.1406 42.2949C44.9691 42.2939 45.7634 41.9643 46.3492 41.3785C46.935 40.7927 47.2646 39.9984 47.2656 39.1699ZM44.1406 40.7324C43.8316 40.7324 43.5295 40.6408 43.2725 40.4691C43.0156 40.2974 42.8153 40.0534 42.6971 39.7679C42.5788 39.4824 42.5479 39.1682 42.6081 38.8651C42.6684 38.562 42.8173 38.2836 43.0358 38.0651C43.2543 37.8465 43.5327 37.6977 43.8358 37.6374C44.1389 37.5772 44.4531 37.6081 44.7386 37.7264C45.0241 37.8446 45.2681 38.0449 45.4398 38.3018C45.6115 38.5588 45.7031 38.8609 45.7031 39.1699C45.7027 39.5842 45.538 39.9814 45.245 40.2743C44.9521 40.5673 44.5549 40.732 44.1406 40.7324Z" fill="#F9F9FA"/>
<path d="M46.875 44.6387C47.3065 44.6387 47.6562 44.2889 47.6562 43.8574C47.6562 43.4259 47.3065 43.0762 46.875 43.0762C46.4435 43.0762 46.0938 43.4259 46.0938 43.8574C46.0938 44.2889 46.4435 44.6387 46.875 44.6387Z" fill="#F9F9FA"/>
<path d="M5.85938 36.0449C5.24131 36.0449 4.63712 36.2282 4.12322 36.5716C3.60932 36.915 3.20878 37.403 2.97225 37.974C2.73573 38.5451 2.67384 39.1734 2.79442 39.7796C2.915 40.3858 3.21263 40.9426 3.64967 41.3796C4.08671 41.8167 4.64353 42.1143 5.24972 42.2349C5.85591 42.3555 6.48424 42.2936 7.05526 42.057C7.62628 41.8205 8.11434 41.42 8.45772 40.9061C8.8011 40.3922 8.98438 39.788 8.98438 39.1699C8.98334 38.3414 8.65377 37.5472 8.06794 36.9614C7.48212 36.3755 6.68786 36.046 5.85938 36.0449ZM5.85938 40.7324C5.55034 40.7324 5.24825 40.6408 4.9913 40.4691C4.73435 40.2974 4.53408 40.0534 4.41581 39.7679C4.29755 39.4824 4.26661 39.1682 4.3269 38.8651C4.38719 38.562 4.536 38.2836 4.75452 38.0651C4.97304 37.8465 5.25145 37.6977 5.55455 37.6374C5.85764 37.5772 6.17181 37.6081 6.45732 37.7264C6.74283 37.8446 6.98686 38.0449 7.15855 38.3018C7.33024 38.5588 7.42188 38.8609 7.42188 39.1699C7.42146 39.5842 7.25671 39.9814 6.96377 40.2743C6.67084 40.5673 6.27365 40.732 5.85938 40.7324Z" fill="#F9F9FA"/>
<path d="M3.125 44.6387C3.55647 44.6387 3.90625 44.2889 3.90625 43.8574C3.90625 43.4259 3.55647 43.0762 3.125 43.0762C2.69353 43.0762 2.34375 43.4259 2.34375 43.8574C2.34375 44.2889 2.69353 44.6387 3.125 44.6387Z" fill="#F9F9FA"/>
<path d="M49.8105 24.8784C41.5781 15.3355 32.8886 10.6909 23.9617 11.0659C9.92067 11.6616 0.540981 24.389 0.148403 24.9308C0.0267244 25.0985 -0.0233404 25.3077 0.00922206 25.5124C0.0417845 25.717 0.154307 25.9003 0.322036 26.022C0.489764 26.1437 0.69896 26.1937 0.903602 26.1612C1.10824 26.1286 1.29157 26.0161 1.41325 25.8484C1.50504 25.7214 10.7574 13.1839 24.0382 12.6273C32.4558 12.2851 40.7257 16.7405 48.6265 25.8995C48.7619 26.0565 48.954 26.1532 49.1607 26.1685C49.3674 26.1838 49.5717 26.1163 49.7287 25.981C49.8856 25.8456 49.9824 25.6535 49.9977 25.4468C50.0129 25.2401 49.9455 25.0358 49.8101 24.8788L49.8105 24.8784ZM13.5117 35.4124C13.3281 35.3188 13.1149 35.3014 12.9185 35.3639C12.7221 35.4264 12.5583 35.5639 12.4627 35.7465C12.367 35.9291 12.3472 36.142 12.4076 36.3391C12.468 36.5362 12.6036 36.7015 12.7851 36.7991C12.8976 36.8568 13.022 36.8875 13.1484 36.889C13.2914 36.8894 13.4317 36.8503 13.5537 36.7758C13.6758 36.7013 13.7748 36.5945 13.8398 36.4671C13.9353 36.2836 13.9543 36.0698 13.8929 35.8722C13.8314 35.6747 13.6944 35.5094 13.5117 35.4124ZM15.9257 36.5374C15.7828 36.4787 15.6257 36.4637 15.4742 36.4943C15.3228 36.5249 15.1838 36.5997 15.0749 36.7093C14.9659 36.8188 14.8919 36.9583 14.8622 37.1099C14.8325 37.2615 14.8484 37.4186 14.908 37.5611C14.9675 37.7037 15.068 37.8254 15.1967 37.9109C15.3255 37.9964 15.4766 38.0418 15.6312 38.0413C15.7857 38.0409 15.9366 37.9946 16.0648 37.9084C16.193 37.8222 16.2928 37.6999 16.3515 37.557C16.3908 37.4621 16.4109 37.3604 16.4107 37.2577C16.4106 37.1551 16.3901 37.0534 16.3505 36.9587C16.311 36.864 16.2531 36.778 16.1802 36.7057C16.1073 36.6334 16.0208 36.5762 15.9257 36.5374ZM11.1992 34.0804C11.069 33.9988 10.9177 33.9575 10.7641 33.9617C10.6105 33.966 10.4617 34.0156 10.3363 34.1043C10.2108 34.1931 10.1145 34.3169 10.0594 34.4603C10.0042 34.6037 9.99279 34.7602 10.0265 34.9101C10.0601 35.06 10.1374 35.1966 10.2486 35.3026C10.3597 35.4086 10.4998 35.4794 10.6511 35.5059C10.8024 35.5325 10.9582 35.5137 11.0988 35.4519C11.2395 35.39 11.3587 35.288 11.4414 35.1585C11.497 35.0721 11.535 34.9754 11.5529 34.8741C11.5709 34.7729 11.5685 34.6691 11.546 34.5687C11.5235 34.4684 11.4812 34.3736 11.4217 34.2897C11.3621 34.2059 11.2865 34.1347 11.1992 34.0804ZM6.38668 32.2601C6.54673 32.2609 6.70316 32.2125 6.83482 32.1215C6.96649 32.0306 7.06703 31.9013 7.12285 31.7513C7.17867 31.6013 7.18708 31.4378 7.14694 31.2829C7.1068 31.128 7.02004 30.9891 6.8984 30.8851C6.82043 30.8184 6.73009 30.7677 6.63253 30.7359C6.53497 30.7042 6.43211 30.6919 6.32982 30.6999C6.22753 30.7079 6.12782 30.7359 6.03637 30.7825C5.94492 30.829 5.86353 30.893 5.79684 30.971C5.73015 31.049 5.67948 31.1393 5.64771 31.2369C5.61593 31.3344 5.60369 31.4373 5.61167 31.5396C5.61965 31.6419 5.6477 31.7416 5.69421 31.8331C5.74073 31.9245 5.80481 32.0059 5.88278 32.0726C6.02276 32.1936 6.20164 32.2602 6.38668 32.2601ZM2.99606 28.2366C3.13124 28.1152 3.21961 27.9502 3.24585 27.7704C3.27208 27.5906 3.23452 27.4072 3.13967 27.2522C3.04483 27.0972 2.8987 26.9803 2.72664 26.9218C2.55459 26.8633 2.36748 26.8669 2.1978 26.932C2.02812 26.997 1.88658 27.1194 1.79776 27.278C1.70893 27.4365 1.67843 27.6212 1.71155 27.7999C1.74467 27.9785 1.83931 28.14 1.97905 28.2562C2.11879 28.3723 2.2948 28.4359 2.47653 28.4359C2.66824 28.4352 2.85308 28.3644 2.99606 28.2366ZM4.37106 30.4124C4.47511 30.4127 4.57816 30.3921 4.67411 30.3519C4.77006 30.3116 4.85696 30.2525 4.92965 30.1781C5.03778 30.0676 5.11073 29.9275 5.13927 29.7756C5.1678 29.6237 5.15065 29.4667 5.08997 29.3245C5.0293 29.1823 4.92782 29.0613 4.79838 28.9768C4.66895 28.8923 4.51735 28.8481 4.36278 28.8497C4.2082 28.8513 4.05758 28.8988 3.92996 28.986C3.80234 29.0733 3.70345 29.1964 3.6458 29.3398C3.58816 29.4832 3.57433 29.6406 3.60608 29.7918C3.63784 29.9431 3.71373 30.0816 3.82418 30.1898C3.9701 30.333 4.16658 30.413 4.37106 30.4124ZM8.99215 32.5609C8.90982 32.4998 8.81627 32.4556 8.71684 32.4307C8.61742 32.4058 8.51406 32.4007 8.41268 32.4158C8.3113 32.4308 8.21387 32.4657 8.12597 32.5184C8.03806 32.5711 7.9614 32.6406 7.90036 32.723C7.83931 32.8053 7.79508 32.8989 7.77019 32.9983C7.7453 33.0977 7.74024 33.2011 7.75529 33.3024C7.77035 33.4038 7.80522 33.5013 7.85793 33.5892C7.91063 33.6771 7.98013 33.7537 8.06247 33.8148H8.05856C8.22484 33.9386 8.43349 33.9912 8.6386 33.9612C8.84372 33.9312 9.02851 33.8209 9.15231 33.6546C9.27611 33.4883 9.32879 33.2797 9.29875 33.0746C9.26872 32.8694 9.15843 32.6847 8.99215 32.5609ZM36.3515 35.3929C36.1967 35.4743 36.0737 35.6053 36.0023 35.765C35.9308 35.9246 35.9149 36.1036 35.9572 36.2733C35.9995 36.443 36.0976 36.5936 36.2356 36.701C36.3737 36.8084 36.5438 36.8663 36.7187 36.8655C36.8375 36.8655 36.9547 36.8384 37.0614 36.7863C37.1682 36.7342 37.2617 36.6585 37.3348 36.5649C37.4079 36.4713 37.4587 36.3622 37.4834 36.246C37.5081 36.1299 37.506 36.0096 37.4772 35.8943C37.4485 35.7791 37.3939 35.6719 37.3175 35.5809C37.2412 35.4899 37.1451 35.4175 37.0366 35.3692C36.9281 35.3208 36.81 35.2978 36.6913 35.302C36.5726 35.3061 36.4564 35.3372 36.3515 35.3929ZM43.9531 32.014C44.0933 31.8944 44.1871 31.7293 44.2178 31.5476C44.2486 31.3659 44.2144 31.1792 44.1212 31.0202C44.0281 30.8611 43.882 30.7399 43.7085 30.6778C43.5349 30.6157 43.3451 30.6167 43.1722 30.6805C42.9993 30.7444 42.8544 30.867 42.7629 31.027C42.6714 31.1869 42.6391 31.374 42.6716 31.5554C42.7042 31.7368 42.7996 31.9009 42.941 32.0191C43.0825 32.1372 43.261 32.2018 43.4453 32.2015C43.6318 32.2036 43.8126 32.1368 43.9531 32.014ZM38.6523 34.0413C38.522 34.1248 38.4194 34.245 38.3575 34.3867C38.2955 34.5285 38.2771 34.6855 38.3044 34.8378C38.3318 34.9901 38.4037 35.1308 38.5111 35.2422C38.6185 35.3536 38.7565 35.4306 38.9077 35.4634C39.0589 35.4963 39.2164 35.4836 39.3604 35.4268C39.5043 35.3701 39.6282 35.2719 39.7163 35.1447C39.8044 35.0175 39.8528 34.8671 39.8553 34.7124C39.8578 34.5577 39.8143 34.4057 39.7304 34.2757C39.6181 34.1022 39.4417 33.9802 39.2397 33.9363C39.0377 33.8924 38.8266 33.9301 38.6523 34.0413ZM41.7851 33.7601C41.9087 33.6674 42.0021 33.5401 42.0534 33.3943C42.1046 33.2486 42.1115 33.0909 42.0732 32.9412C42.0348 32.7915 41.953 32.6566 41.8379 32.5534C41.7229 32.4503 41.5798 32.3835 41.4269 32.3617C41.2739 32.3398 41.1179 32.3638 40.9786 32.4306C40.8392 32.4975 40.7229 32.6041 40.6441 32.737C40.5654 32.87 40.5279 33.0233 40.5363 33.1776C40.5447 33.3319 40.5987 33.4802 40.6914 33.6038C40.8157 33.7696 41.0008 33.8792 41.2059 33.9085C41.411 33.9378 41.6194 33.8844 41.7851 33.7601ZM46.0078 30.1468C46.141 30.021 46.2262 29.8527 46.2487 29.6709C46.2712 29.489 46.2296 29.305 46.1311 29.1506C46.0325 28.9961 45.8832 28.8808 45.7088 28.8246C45.5344 28.7684 45.3459 28.7748 45.1756 28.8426C45.0054 28.9104 44.8642 29.0355 44.7763 29.1963C44.6884 29.357 44.6592 29.5434 44.694 29.7233C44.7287 29.9032 44.825 30.0654 44.9664 30.1819C45.1079 30.2984 45.2855 30.362 45.4687 30.3616C45.6693 30.3617 45.8622 30.2848 46.0078 30.1468ZM46.8203 27.1038C46.7149 27.2147 46.6444 27.3541 46.6176 27.5047C46.5909 27.6553 46.609 27.8104 46.6698 27.9508C46.7306 28.0911 46.8314 28.2105 46.9596 28.294C47.0877 28.3774 47.2376 28.4214 47.3906 28.4202C47.4969 28.4206 47.6021 28.3989 47.6996 28.3565C47.797 28.3141 47.8847 28.2521 47.957 28.1741C48.03 28.1 48.0875 28.0121 48.1261 27.9155C48.1646 27.8188 48.1835 27.7155 48.1816 27.6114C48.1796 27.5074 48.1569 27.4048 48.1148 27.3097C48.0726 27.2146 48.0119 27.1288 47.9361 27.0575C47.8604 26.9862 47.7711 26.9307 47.6737 26.8944C47.5762 26.858 47.4724 26.8415 47.3685 26.8458C47.2645 26.8502 47.1625 26.8752 47.0683 26.9195C46.9742 26.9638 46.8899 27.0265 46.8203 27.1038ZM23.6211 38.3499C23.5175 38.3416 23.4134 38.3541 23.3148 38.3865C23.2161 38.419 23.1249 38.4708 23.0465 38.5389C22.9681 38.607 22.9041 38.6901 22.8582 38.7832C22.8123 38.8764 22.7855 38.9777 22.7793 39.0814C22.773 39.1851 22.7875 39.2889 22.8219 39.3869C22.8563 39.4849 22.9099 39.575 22.9796 39.6521C23.0492 39.7291 23.1336 39.7914 23.2276 39.8355C23.3217 39.8795 23.4235 39.9043 23.5273 39.9085H23.5742C23.7766 39.9079 23.9708 39.8286 24.1159 39.6874C24.2609 39.5462 24.3454 39.3542 24.3515 39.1519C24.3576 38.9496 24.2848 38.7528 24.1485 38.6032C24.0122 38.4535 23.8231 38.3627 23.6211 38.3499ZM18.4257 37.4202C18.3273 37.3913 18.224 37.382 18.1219 37.3929C18.0198 37.4038 17.9209 37.4347 17.8308 37.4838C17.7406 37.533 17.6611 37.5994 17.5966 37.6793C17.5321 37.7592 17.484 37.851 17.455 37.9495C17.4261 38.048 17.4168 38.1513 17.4277 38.2533C17.4386 38.3554 17.4695 38.4544 17.5187 38.5445C17.5678 38.6346 17.6342 38.7142 17.7141 38.7787C17.794 38.8432 17.8858 38.8913 17.9843 38.9202C18.0556 38.9401 18.1291 38.9506 18.2031 38.9515C18.3911 38.9518 18.5729 38.8843 18.7152 38.7614C18.8575 38.6385 18.9507 38.4684 18.9778 38.2823C19.0048 38.0963 18.9639 37.9067 18.8625 37.7483C18.7611 37.59 18.6061 37.4735 18.4257 37.4202ZM21 38.0335C20.8983 38.0142 20.7939 38.0152 20.6926 38.0365C20.5914 38.0579 20.4954 38.0991 20.4103 38.1578C20.3251 38.2165 20.2524 38.2915 20.1964 38.3785C20.1405 38.4655 20.1023 38.5628 20.0842 38.6646C20.0661 38.7665 20.0684 38.8709 20.091 38.9719C20.1136 39.0729 20.156 39.1683 20.2157 39.2528C20.2755 39.3372 20.3514 39.409 20.4391 39.4639C20.5267 39.5188 20.6245 39.5557 20.7265 39.5726C20.7717 39.5803 20.8174 39.5842 20.8632 39.5843C21.0589 39.5848 21.2476 39.5118 21.3921 39.3799C21.5365 39.2479 21.6262 39.0666 21.6434 38.8717C21.6606 38.6768 21.604 38.4825 21.4849 38.3273C21.3657 38.1721 21.1927 38.0673 21 38.0335ZM28.8828 38.0374C28.6901 38.0712 28.517 38.176 28.3979 38.3312C28.2787 38.4864 28.2222 38.6807 28.2393 38.8756C28.2565 39.0705 28.3462 39.2518 28.4907 39.3838C28.6351 39.5157 28.8238 39.5887 29.0195 39.5882C29.0653 39.5879 29.111 39.584 29.1562 39.5765C29.3582 39.538 29.537 39.4215 29.6537 39.2522C29.7704 39.0829 29.8156 38.8744 29.7797 38.6719C29.7437 38.4694 29.6294 38.2893 29.4615 38.1705C29.2936 38.0518 29.0857 38.0039 28.8828 38.0374ZM26.2578 38.3499C26.0553 38.3627 25.8657 38.4538 25.729 38.6038C25.5924 38.7538 25.5194 38.951 25.5254 39.1538C25.5315 39.3567 25.6162 39.5492 25.7616 39.6907C25.907 39.8323 26.1017 39.9118 26.3047 39.9124C26.3204 39.913 26.3361 39.9117 26.3515 39.9085C26.4553 39.9043 26.5572 39.8795 26.6512 39.8355C26.7453 39.7914 26.8296 39.7291 26.8993 39.6521C26.9689 39.575 27.0225 39.4849 27.0569 39.3869C27.0913 39.2889 27.1058 39.1851 27.0996 39.0814C27.0933 38.9777 27.0665 38.8764 27.0206 38.7832C26.9747 38.6901 26.9107 38.607 26.8323 38.5389C26.7539 38.4708 26.6627 38.419 26.5641 38.3865C26.4654 38.3541 26.3613 38.3416 26.2578 38.3499ZM33.9492 36.5296C33.7819 36.5988 33.6438 36.7239 33.5585 36.8836C33.4733 37.0433 33.446 37.2277 33.4815 37.4052C33.517 37.5827 33.6131 37.7424 33.7532 37.857C33.8934 37.9716 34.0689 38.034 34.25 38.0335C34.3518 38.0331 34.4525 38.0132 34.5468 37.9749C34.7385 37.8957 34.8908 37.7435 34.9703 37.552C35.0498 37.3604 35.0499 37.1451 34.9707 36.9534C34.8914 36.7618 34.7393 36.6095 34.5477 36.53C34.3561 36.4505 34.1408 36.4504 33.9492 36.5296ZM31.4531 37.4241C31.2732 37.4773 31.1186 37.5936 31.0175 37.7516C30.9164 37.9096 30.8757 38.0987 30.9027 38.2843C30.9298 38.4699 31.0228 38.6395 31.1648 38.762C31.3068 38.8846 31.4882 38.9518 31.6757 38.9515C31.7511 38.9527 31.8263 38.9422 31.8984 38.9202C31.9966 38.891 32.0882 38.8427 32.1677 38.7781C32.2473 38.7135 32.3134 38.6338 32.3621 38.5437C32.4109 38.4536 32.4415 38.3547 32.4521 38.2528C32.4626 38.1508 32.453 38.0478 32.4238 37.9495C32.3946 37.8513 32.3462 37.7598 32.2816 37.6802C32.217 37.6006 32.1374 37.5346 32.0473 37.4858C31.9571 37.437 31.8582 37.4065 31.7563 37.3959C31.6544 37.3853 31.5513 37.3949 31.4531 37.4241Z" fill="#F9F9FA"/>
<path d="M25 20.8105C24.0729 20.8105 23.1666 21.0855 22.3958 21.6005C21.6249 22.1156 21.0241 22.8477 20.6693 23.7042C20.3145 24.5607 20.2217 25.5032 20.4026 26.4125C20.5834 27.3218 21.0299 28.1571 21.6854 28.8126C22.341 29.4682 23.1762 29.9146 24.0855 30.0955C24.9948 30.2763 25.9373 30.1835 26.7938 29.8287C27.6504 29.4739 28.3824 28.8731 28.8975 28.1023C29.4126 27.3314 29.6875 26.4251 29.6875 25.498C29.6862 24.2553 29.1919 23.0638 28.3131 22.185C27.4343 21.3062 26.2428 20.8119 25 20.8105ZM25 28.623C24.3819 28.623 23.7777 28.4398 23.2638 28.0964C22.7499 27.753 22.3494 27.265 22.1129 26.6939C21.8764 26.1229 21.8145 25.4946 21.935 24.8884C22.0556 24.2822 22.3533 23.7254 22.7903 23.2883C23.2273 22.8513 23.7842 22.5537 24.3903 22.4331C24.9965 22.3125 25.6249 22.3744 26.1959 22.6109C26.7669 22.8474 27.255 23.248 27.5983 23.7619C27.9417 24.2758 28.125 24.88 28.125 25.498C28.124 26.3265 27.7944 27.1208 27.2086 27.7066C26.6227 28.2924 25.8285 28.622 25 28.623Z" fill="#F9F9FA"/>
<path d="M34.1375 23.0504C34.4197 22.7132 34.5915 22.2974 34.6297 21.8594C34.6679 21.4214 34.5707 20.9822 34.3512 20.6012L33.9164 19.848C33.6966 19.4671 33.3648 19.1631 32.9662 18.9774C32.5675 18.7916 32.1213 18.7331 31.6883 18.8098C31.7643 18.3767 31.7055 17.9308 31.5198 17.5323C31.3341 17.1338 31.0304 16.802 30.65 16.5816L29.8969 16.1469C29.5161 15.9268 29.0767 15.8295 28.6386 15.8681C28.2005 15.9067 27.7849 16.0793 27.4484 16.3625C27.2979 15.9492 27.024 15.5922 26.6638 15.3398C26.3037 15.0873 25.8746 14.9517 25.4348 14.9512H24.5652C24.1254 14.9517 23.6963 15.0873 23.3362 15.3398C22.976 15.5922 22.7021 15.9492 22.5516 16.3625C22.2151 16.0793 21.7995 15.9067 21.3614 15.8681C20.9233 15.8295 20.4839 15.9268 20.1031 16.1469L19.35 16.5816C18.9695 16.802 18.6659 17.1338 18.4802 17.5323C18.2946 17.9308 18.2357 18.3767 18.3117 18.8098C17.8787 18.7331 17.4325 18.7916 17.0338 18.9774C16.6352 19.1631 16.3034 19.4671 16.0836 19.848L15.6488 20.6012C15.4293 20.9822 15.3321 21.4214 15.3703 21.8594C15.4085 22.2974 15.5803 22.7132 15.8625 23.0504C15.4497 23.2012 15.0932 23.4751 14.8411 23.8351C14.5891 24.1951 14.4536 24.6238 14.4531 25.0633V25.9328C14.4537 26.3723 14.5892 26.8009 14.8412 27.1609C15.0933 27.5209 15.4498 27.7948 15.8625 27.9457C15.5803 28.2829 15.4085 28.6986 15.3703 29.1367C15.3321 29.5747 15.4293 30.0139 15.6488 30.3949L16.0836 31.148C16.3034 31.529 16.6352 31.833 17.0338 32.0187C17.4325 32.2045 17.8787 32.263 18.3117 32.1863C18.2357 32.6194 18.2946 33.0653 18.4802 33.4638C18.6659 33.8623 18.9695 34.1941 19.35 34.4145L20.1031 34.8492C20.4839 35.0692 20.9233 35.1666 21.3614 35.128C21.7995 35.0894 22.2151 34.9168 22.5516 34.6336C22.7021 35.0469 22.976 35.4039 23.3362 35.6563C23.6963 35.9088 24.1254 36.0444 24.5652 36.0449H25.4348C25.8746 36.0444 26.3037 35.9088 26.6638 35.6563C27.024 35.4039 27.2979 35.0469 27.4484 34.6336C27.7849 34.9168 28.2005 35.0894 28.6386 35.128C29.0767 35.1666 29.5161 35.0692 29.8969 34.8492L30.65 34.4145C31.0305 34.1942 31.3341 33.8623 31.5198 33.4638C31.7055 33.0653 31.7643 32.6194 31.6883 32.1863C32.1213 32.263 32.5675 32.2045 32.9662 32.0187C33.3648 31.833 33.6966 31.529 33.9164 31.148L34.3512 30.3949C34.5707 30.0139 34.6679 29.5747 34.6297 29.1367C34.5915 28.6986 34.4197 28.2829 34.1375 27.9457C34.5503 27.7949 34.9068 27.521 35.1589 27.161C35.4109 26.801 35.5464 26.3723 35.5469 25.9328V25.0633C35.5464 24.6238 35.4109 24.1951 35.1589 23.8351C34.9068 23.4751 34.5503 23.2012 34.1375 23.0504ZM33.9844 25.9328C33.9844 26.0866 33.9233 26.234 33.8146 26.3427C33.7059 26.4514 33.5584 26.5125 33.4047 26.5125H32.3191C32.236 27.119 32.0774 27.7126 31.8469 28.2797L32.7859 28.8219C32.9191 28.8988 33.0162 29.0254 33.056 29.1739C33.0957 29.3223 33.0749 29.4805 32.998 29.6137L32.5633 30.3668C32.5252 30.4327 32.4746 30.4906 32.4142 30.5369C32.3538 30.5833 32.2849 30.6173 32.2113 30.637C32.1378 30.6567 32.0611 30.6617 31.9856 30.6517C31.9102 30.6418 31.8374 30.617 31.7715 30.5789L30.8309 30.0359C30.4547 30.5185 30.0205 30.9528 29.5379 31.3289L30.0809 32.2695C30.1577 32.4027 30.1785 32.5609 30.1388 32.7094C30.099 32.8578 30.0019 32.9844 29.8687 33.0613L29.1156 33.4961C29.0497 33.5342 28.9769 33.5589 28.9015 33.5689C28.826 33.5789 28.7493 33.5739 28.6758 33.5542C28.6022 33.5345 28.5333 33.5005 28.4729 33.4541C28.4125 33.4077 28.3619 33.3499 28.3238 33.284L27.7816 32.3449C27.2146 32.5756 26.6209 32.7344 26.0145 32.8176V33.9027C26.0145 34.0565 25.9534 34.2039 25.8447 34.3126C25.736 34.4213 25.5885 34.4824 25.4348 34.4824H24.5652C24.4115 34.4824 24.264 34.4213 24.1553 34.3126C24.0466 34.2039 23.9855 34.0565 23.9855 33.9027V32.8172C23.3791 32.7341 22.7854 32.5754 22.2184 32.3449L21.6762 33.284C21.6381 33.3499 21.5875 33.4077 21.5271 33.4541C21.4667 33.5005 21.3978 33.5345 21.3242 33.5542C21.2507 33.5739 21.174 33.5789 21.0985 33.5689C21.0231 33.5589 20.9503 33.5342 20.8844 33.4961L20.1312 33.0613C19.9981 32.9844 19.901 32.8578 19.8612 32.7094C19.8215 32.5609 19.8423 32.4027 19.9191 32.2695L20.4621 31.3289C19.9795 30.9528 19.5453 30.5185 19.1691 30.0359L18.2285 30.5789C18.1626 30.617 18.0898 30.6418 18.0144 30.6517C17.9389 30.6617 17.8622 30.6567 17.7887 30.637C17.7151 30.6173 17.6462 30.5833 17.5858 30.5369C17.5254 30.4906 17.4748 30.4327 17.4367 30.3668L17.002 29.6137C16.9251 29.4805 16.9043 29.3223 16.944 29.1739C16.9838 29.0254 17.0809 28.8988 17.2141 28.8219L18.1531 28.2797C17.9225 27.7126 17.7637 27.119 17.6805 26.5125H16.5953C16.4416 26.5125 16.2941 26.4514 16.1854 26.3427C16.0767 26.234 16.0156 26.0866 16.0156 25.9328V25.0633C16.0156 24.9095 16.0767 24.7621 16.1854 24.6534C16.2941 24.5447 16.4416 24.4836 16.5953 24.4836H17.6809C17.7639 23.877 17.9226 23.2832 18.1531 22.716L17.2141 22.1742C17.0809 22.0973 16.9838 21.9707 16.944 21.8222C16.9043 21.6738 16.9251 21.5156 17.002 21.3824L17.4367 20.6293C17.4748 20.5633 17.5254 20.5055 17.5858 20.4592C17.6462 20.4128 17.7151 20.3788 17.7887 20.3591C17.8622 20.3394 17.9389 20.3344 18.0144 20.3444C18.0898 20.3543 18.1626 20.3791 18.2285 20.4172L19.1691 20.9602C19.5453 20.4776 19.9795 20.0433 20.4621 19.6672L19.9191 18.7266C19.8423 18.5934 19.8215 18.4352 19.8612 18.2867C19.901 18.1383 19.9981 18.0116 20.1312 17.9348L20.8844 17.5C20.9503 17.4619 21.0231 17.4372 21.0985 17.4272C21.174 17.4172 21.2507 17.4222 21.3242 17.4419C21.3978 17.4616 21.4667 17.4956 21.5271 17.542C21.5875 17.5884 21.6381 17.6462 21.6762 17.7121L22.218 18.6512C22.7851 18.4205 23.3789 18.2617 23.9855 18.1785V17.0934C23.9855 16.9396 24.0466 16.7922 24.1553 16.6835C24.264 16.5747 24.4115 16.5137 24.5652 16.5137H25.4348C25.5885 16.5137 25.736 16.5747 25.8447 16.6835C25.9534 16.7922 26.0145 16.9396 26.0145 17.0934V18.1789C26.6209 18.262 27.2146 18.4207 27.7816 18.6512L28.3238 17.7121C28.3619 17.6462 28.4125 17.5884 28.4729 17.542C28.5333 17.4956 28.6022 17.4616 28.6758 17.4419C28.7493 17.4222 28.826 17.4172 28.9015 17.4272C28.9769 17.4372 29.0497 17.4619 29.1156 17.5L29.8687 17.9348C30.0019 18.0116 30.099 18.1383 30.1388 18.2867C30.1785 18.4352 30.1577 18.5934 30.0809 18.7266L29.5379 19.6672C30.0205 20.0433 30.4548 20.4776 30.8309 20.9602L31.7715 20.4172C31.8374 20.3791 31.9102 20.3543 31.9856 20.3444C32.0611 20.3344 32.1378 20.3394 32.2113 20.3591C32.2849 20.3788 32.3538 20.4128 32.4142 20.4592C32.4746 20.5055 32.5252 20.5633 32.5633 20.6293L32.998 21.3824C33.0749 21.5156 33.0957 21.6738 33.056 21.8222C33.0162 21.9707 32.9191 22.0973 32.7859 22.1742L31.8469 22.7164C32.0775 23.2834 32.2363 23.8771 32.3195 24.4836H33.4047C33.5584 24.4836 33.7059 24.5447 33.8146 24.6534C33.9233 24.7621 33.9844 24.9095 33.9844 25.0633V25.9328Z" fill="#F9F9FA"/>
</g>
<defs>
<clipPath id="clip0_327_1626">
<rect width="50" height="50" fill="white" transform="translate(0 0.498047)"/>
</clipPath>
</defs>
</svg>
